<svg xmlns="http://www.w3.org/2000/svg" id="globey-_a0" viewBox="0 0 560 400">
<defs>
<linearGradient id="globey-Gradient-0" x1="183.3" y1="0" x2="183.3" y2="81.7" gradientUnits="userSpaceOnUse">
<stop offset=".7" stop-color="#fefbf6"></stop>
<stop offset="1" stop-color="#fefbf6" stop-opacity="0"></stop>
</linearGradient>
<linearGradient id="globey-Gradient-1" x1="183.3" y1="0" x2="183.3" y2="81.7" gradientUnits="userSpaceOnUse">
<stop offset=".7" stop-color="#fefbf6"></stop>
<stop offset="1" stop-color="#fefbf6"></stop>
</linearGradient>
<mask id="mka-1">
<path id="globey-mp-16" fill="#fff" d="M0,0L195.1,0L195.1,22.4L0,22.4Z" transform="translate(91.4,-5.6) translate(-97.6,-11.2)"></path>
</mask>
<mask id="mka-2">
<path id="globey-mp-14" fill="#fff" d="M0,0L195.1,0L195.1,22.4L0,22.4Z" transform="translate(91.4,-5.6) translate(-97.6,-11.2)"></path>
</mask>
<mask id="mka-3">
<path id="globey-mp-12" fill="#fff" d="M0,0L195.1,0L195.1,22.4L0,22.4Z" transform="translate(91.4,-5.6) translate(-97.6,-11.2)"></path>
</mask>
<mask id="mka-4">
<path fill="#fff" d="M0 0h218.7v32.8h-218.7Z" transform="translate(109.4,16.4) translate(-109.4,-16.4)"></path>
</mask>
<mask id="mka-5">
<path id="globey-mp-10" fill="#fff" d="M0,0L195.1,0L195.1,22.4L0,22.4Z" transform="translate(91.4,-5.6) translate(-97.6,-11.2)"></path>
</mask>
<mask id="mka-6">
<path fill="#fff" d="M0 0h218.7v32.8h-218.7Z" transform="translate(109.4,16.4) translate(-109.4,-16.4)"></path>
</mask>
<mask id="mka-7">
<path id="globey-mp-8" fill="#fff" d="M0,0L195.1,0L195.1,22.4L0,22.4Z" transform="translate(91.4,-5.6) translate(-97.6,-11.2)"></path>
</mask>
<mask id="mka-8">
<path fill="#fff" d="M0 0h218.7v32.8h-218.7Z" transform="translate(109.4,16.4) translate(-109.4,-16.4)"></path>
</mask>
<mask id="mka-9">
<path id="globey-mp-6" fill="#fff" d="M0,0L195.1,0L195.1,22.4L0,22.4Z" transform="translate(91.4,-5.6) translate(-97.6,-11.2)"></path>
</mask>
<mask id="mka-10">
<path fill="#fff" d="M0 0h218.7v32.8h-218.7Z" transform="translate(109.4,16.4) translate(-109.4,-16.4)"></path>
</mask>
<mask id="mka-11">
<path id="globey-mp-4" fill="#fff" d="M0,0L195.1,0L195.1,22.4L0,22.4Z" transform="translate(91.4,-5.6) translate(-97.6,-11.2)"></path>
</mask>
<mask id="mka-12">
<path fill="#fff" d="M0 0h218.7v32.8h-218.7Z" transform="translate(109.4,16.4) translate(-109.4,-16.4)"></path>
</mask>
<mask id="mka-13">
<path id="globey-mp-2" fill="#fff" d="M0,0L195.1,0L195.1,22.4L0,22.4Z" transform="translate(91.4,-5.6) translate(-97.6,-11.2)"></path>
</mask>
<mask id="mka-14">
<path fill="#fff" d="M0 0h218.7v32.8h-218.7Z" transform="translate(109.4,16.4) translate(-109.4,-16.4)"></path>
</mask>
</defs>
<g id="globey-text" transform="translate(214,20.9) translate(-144,-158.4)" style="opacity: 0.741;">
<g id="globey-laundry list" transform="translate(125.30000305175781,153.39999389648438)  translate(-109.2,0) translate(0,-153.2)">
<g transform="translate(109.2,289.9) translate(-109.2,-16.4)">
<g id="globey-task card" transform="translate(109.19999694824219,16.399999618530273)  translate(-109.2,0) translate(0,-16.4)">
<g id="globey-speech bubble" opacity="0" transform="translate(109.2,16.4) translate(-109.2,-16.4)" style="opacity: 1;">
<path d="M-2 0c0 0-4 11.2-4 11.2c0 0 11-4 11-4c0 0-7-7.2-7-7.2Z" fill="#4bbcfd" transform="translate(6,21.6)"></path>
<rect width="218.2" height="32" fill="#4bbcfd" rx="17" transform="translate(101.7,16.4) translate(-101.5,-16.4)"></rect>
</g>
<path fill="#fff" d="M7.4 0l-4.1-5v5h-2.2v-11.2h2.2v5l4.1-5h2.7l-4.6 5.6l4.7 5.6Zm12.6-4.6c0 .3-0.1 .6-0.1 .8h-6.5c.1 .7 .3 1.2 .7 1.5c.4 .4 .9 .6 1.4 .6c.9 0 1.5-0.4 1.8-1.1h2.4c-0.2 .9-0.7 1.6-1.4 2.1c-0.8 .6-1.7 .8-2.7 .8c-0.9 0-1.6-0.1-2.3-0.5c-0.7-0.4-1.2-0.9-1.6-1.6c-0.4-0.7-0.6-1.5-0.6-2.4c0-0.9 .2-1.8 .6-2.4c.4-0.7 .9-1.3 1.6-1.6c.6-0.4 1.4-0.6 2.3-0.6c.8 0 1.6 .2 2.2 .5c.7 .4 1.2 .9 1.6 1.6c.4 .6 .6 1.4 .6 2.3Zm-2.4-0.7c0-0.5-0.2-1-0.6-1.3c-0.4-0.4-0.9-0.6-1.5-0.6c-0.5 0-1 .2-1.4 .5c-0.4 .4-0.6 .8-0.7 1.4Zm12.5-3.6l-5.5 13.1h-2.4l1.9-4.4l-3.5-8.7h2.5l2.3 6.2l2.3-6.2Zm13.5 0l-2.6 8.9h-2.4l-1.7-6.2l-1.6 6.2h-2.4l-2.6-8.9h2.3l1.5 6.8l1.7-6.8h2.4l1.7 6.8l1.5-6.8Zm5.1 9c-0.8 0-1.6-0.1-2.3-0.5c-0.7-0.4-1.2-0.9-1.6-1.6c-0.4-0.7-0.6-1.5-0.6-2.4c0-0.9 .2-1.7 .6-2.4c.4-0.7 1-1.3 1.7-1.6c.6-0.4 1.4-0.6 2.3-0.6c.8 0 1.6 .2 2.3 .6c.7 .3 1.2 .9 1.6 1.6c.4 .7 .6 1.5 .6 2.4c0 .9-0.2 1.7-0.6 2.4c-0.4 .7-0.9 1.2-1.6 1.6c-0.7 .4-1.5 .5-2.4 .5Zm0-1.9c.4 0 .8-0.1 1.2-0.3c.3-0.2 .6-0.5 .8-0.9c.2-0.4 .3-0.9 .3-1.4c0-0.9-0.2-1.5-0.6-2c-0.5-0.4-1-0.7-1.7-0.7c-0.6 0-1.1 .3-1.6 .7c-0.4 .5-0.6 1.1-0.6 2c0 .8 .2 1.5 .6 1.9c.4 .5 1 .7 1.6 .7Zm8.5-5.7c.3-0.5 .7-0.8 1.1-1.1c.5-0.3 1-0.4 1.6-0.4v2.4h-0.6c-0.7 0-1.2 .1-1.5 .5c-0.4 .3-0.6 .9-0.6 1.7v4.4h-2.2v-8.9h2.2Zm3.7 3c0-0.9 .2-1.7 .5-2.3c.4-0.7 .9-1.3 1.5-1.6c.6-0.4 1.3-0.6 2-0.6c.6 0 1.2 .1 1.7 .4c.5 .2 .9 .6 1.2 1v-4.2h2.3v11.8h-2.3v-1.3c-0.2 .4-0.6 .8-1.1 1c-0.5 .3-1.1 .4-1.8 .4c-0.7 0-1.4-0.1-2-0.5c-0.6-0.4-1.1-1-1.5-1.7c-0.3-0.7-0.5-1.5-0.5-2.4Zm6.9 .1c0-0.6-0.1-1-0.3-1.4c-0.2-0.4-0.5-0.7-0.8-0.9c-0.4-0.2-0.8-0.3-1.2-0.3c-0.4 0-0.8 .1-1.2 .3c-0.3 .2-0.6 .5-0.8 .9c-0.2 .3-0.3 .8-0.3 1.3c0 .6 .1 1 .3 1.4c.2 .4 .5 .7 .9 1c.3 .2 .7 .3 1.1 .3c.4 0 .8-0.1 1.2-0.3c.3-0.2 .6-0.5 .8-0.9c.2-0.4 .3-0.9 .3-1.4Zm12.2 4.5c-0.8 0-1.6-0.1-2.3-0.5c-0.6-0.4-1.2-0.9-1.6-1.6c-0.4-0.7-0.6-1.5-0.6-2.4c0-0.9 .2-1.7 .6-2.4c.4-0.7 1-1.3 1.7-1.6c.7-0.4 1.5-0.6 2.3-0.6c.9 0 1.6 .2 2.3 .6c.7 .3 1.3 .9 1.7 1.6c.4 .7 .6 1.5 .6 2.4c0 .9-0.2 1.7-0.7 2.4c-0.4 .7-0.9 1.2-1.6 1.6c-0.7 .4-1.5 .5-2.4 .5Zm0-1.9c.4 0 .8-0.1 1.2-0.3c.3-0.2 .6-0.5 .8-0.9c.3-0.4 .4-0.9 .4-1.4c0-0.9-0.3-1.5-0.7-2c-0.4-0.4-1-0.7-1.6-0.7c-0.7 0-1.2 .3-1.6 .7c-0.5 .5-0.7 1.1-0.7 2c0 .8 .2 1.5 .6 1.9c.5 .5 1 .7 1.6 .7Zm8.5-5.8c.3-0.4 .7-0.7 1.2-1c.5-0.3 1.1-0.4 1.8-0.4c.7 0 1.4 .2 2 .6c.6 .3 1.1 .9 1.5 1.5c.3 .7 .5 1.5 .5 2.4c0 .9-0.2 1.7-0.5 2.4c-0.4 .7-0.9 1.3-1.5 1.7c-0.6 .4-1.3 .5-2 .5c-0.7 0-1.2-0.1-1.7-0.4c-0.5-0.2-0.9-0.6-1.3-1v5.5h-2.2v-13.1h2.2Zm4.7 3.1c0-0.5-0.1-1-0.3-1.3c-0.2-0.4-0.5-0.7-0.9-0.9c-0.3-0.2-0.7-0.3-1.1-0.3c-0.4 0-0.8 .1-1.2 .3c-0.3 .2-0.6 .5-0.8 .9c-0.2 .4-0.4 .8-0.4 1.4c0 .5 .2 1 .4 1.4c.2 .4 .5 .7 .8 .9c.4 .2 .8 .3 1.2 .3c.4 0 .8-0.1 1.1-0.3c.4-0.3 .7-0.6 .9-1c.2-0.4 .3-0.8 .3-1.4Zm6.6-2.5v4.3c0 .3 0 .5 .2 .6c.1 .1 .4 .2 .7 .2h1v1.9h-1.4c-1.9 0-2.8-0.9-2.8-2.8v-4.2h-1.1v-1.9h1.1v-2.2h2.3v2.2h1.9v1.9Zm4.7-2.9c-0.4 0-0.7-0.1-1-0.4c-0.3-0.2-0.4-0.6-0.4-0.9c0-0.4 .1-0.7 .4-1c.3-0.2 .6-0.3 1-0.3c.4 0 .7 .1 1 .3c.2 .3 .4 .6 .4 1c0 .3-0.2 .7-0.4 .9c-0.3 .3-0.6 .4-1 .4Zm1.1 1v8.9h-2.2v-8.9Zm13.2-0.1c1.1 0 2 .3 2.6 1c.7 .7 1 1.6 1 2.8v5.2h-2.2v-4.9c0-0.7-0.2-1.2-0.5-1.6c-0.4-0.4-0.9-0.5-1.5-0.5c-0.6 0-1.1 .1-1.4 .5c-0.4 .4-0.5 .9-0.5 1.6v4.9h-2.3v-4.9c0-0.7-0.2-1.2-0.5-1.6c-0.4-0.4-0.8-0.5-1.5-0.5c-0.6 0-1.1 .1-1.4 .5c-0.4 .4-0.6 .9-0.6 1.6v4.9h-2.2v-8.9h2.2v1.1c.3-0.4 .7-0.7 1.2-0.9c.4-0.2 .9-0.3 1.5-0.3c.6 0 1.3 .2 1.8 .4c.6 .3 1 .8 1.3 1.3c.3-0.5 .7-0.9 1.2-1.2c.6-0.3 1.2-0.5 1.8-0.5Zm6.9-0.9c-0.4 0-0.7-0.1-1-0.4c-0.2-0.2-0.4-0.6-0.4-0.9c0-0.4 .2-0.7 .4-1c.3-0.2 .6-0.3 1-0.3c.4 0 .7 .1 1 .3c.3 .3 .4 .6 .4 1c0 .3-0.1 .7-0.4 .9c-0.3 .3-0.6 .4-1 .4Zm1.1 1v8.9h-2.2v-8.9Zm4.3 7.1h3.9v1.8h-6.5v-1.8l3.9-5.2h-3.9v-1.9h6.5v1.8Zm5.1-2.7c0-0.9 .2-1.7 .5-2.3c.4-0.7 .9-1.3 1.5-1.6c.6-0.4 1.3-0.6 2-0.6c.7 0 1.3 .1 1.8 .4c.5 .3 .9 .6 1.2 1v-1.3h2.2v8.9h-2.2v-1.3c-0.3 .4-0.7 .8-1.2 1c-0.5 .3-1.1 .4-1.8 .4c-0.7 0-1.4-0.1-2-0.5c-0.6-0.4-1.1-1-1.5-1.7c-0.3-0.7-0.5-1.5-0.5-2.4Zm7 .1c0-0.6-0.1-1-0.4-1.4c-0.2-0.4-0.5-0.7-0.8-0.9c-0.4-0.2-0.8-0.3-1.2-0.3c-0.4 0-0.8 .1-1.1 .3c-0.4 .2-0.7 .5-0.9 .9c-0.2 .3-0.3 .8-0.3 1.3c0 .6 .1 1 .3 1.4c.2 .4 .5 .7 .9 1c.3 .2 .7 .3 1.1 .3c.4 0 .8-0.1 1.2-0.3c.3-0.2 .6-0.5 .8-0.9c.3-0.4 .4-0.9 .4-1.4Zm7-2.6v4.3c0 .3 .1 .5 .2 .6c.2 .1 .4 .2 .8 .2h1v1.9h-1.4c-1.9 0-2.8-0.9-2.8-2.8v-4.2h-1.1v-1.9h1.1v-2.2h2.2v2.2h2v1.9Zm4.7-2.9c-0.4 0-0.7-0.1-0.9-0.4c-0.3-0.2-0.4-0.6-0.4-0.9c0-0.4 .1-0.7 .4-1c.2-0.2 .5-0.3 .9-0.3c.4 0 .8 .1 1 .3c.3 .3 .4 .6 .4 1c0 .3-0.1 .7-0.4 .9c-0.2 .3-0.6 .4-1 .4Zm1.1 1v8.9h-2.2v-8.9Zm6.2 9c-0.9 0-1.6-0.1-2.3-0.5c-0.7-0.4-1.2-0.9-1.6-1.6c-0.4-0.7-0.6-1.5-0.6-2.4c0-0.9 .2-1.7 .6-2.4c.4-0.7 .9-1.3 1.6-1.6c.7-0.4 1.5-0.6 2.4-0.6c.8 0 1.6 .2 2.3 .6c.7 .3 1.2 .9 1.6 1.6c.4 .7 .6 1.5 .6 2.4c0 .9-0.2 1.7-0.6 2.4c-0.4 .7-1 1.2-1.7 1.6c-0.7 .4-1.4 .5-2.3 .5Zm0-1.9c.4 0 .8-0.1 1.1-0.3c.4-0.2 .7-0.5 .9-0.9c.2-0.4 .3-0.9 .3-1.4c0-0.9-0.2-1.5-0.6-2c-0.5-0.4-1-0.7-1.7-0.7c-0.6 0-1.1 .3-1.6 .7c-0.4 .5-0.6 1.1-0.6 2c0 .8 .2 1.5 .6 1.9c.4 .5 1 .7 1.6 .7Zm11.2-7.2c1 0 1.9 .3 2.5 1c.7 .7 1 1.6 1 2.8v5.2h-2.2v-4.9c0-0.7-0.2-1.2-0.6-1.6c-0.3-0.4-0.8-0.6-1.4-0.6c-0.6 0-1.1 .2-1.5 .6c-0.3 .4-0.5 .9-0.5 1.6v4.9h-2.2v-8.9h2.2v1.1c.3-0.3 .7-0.6 1.1-0.9c.5-0.2 1-0.3 1.6-0.3Z" mask="url(#mka-1)" transform="translate(17.1,21.6)"></path>
</g>
</g>
<g transform="translate(109.2,246.4) translate(-109.2,-16.4)">
<g id="globey-task card-2" transform="translate(109.19999694824219,16.399999618530273)  translate(-109.2,0) translate(0,-16.4)">
<g id="globey-speech bubble-1" opacity="0" transform="translate(109.2,16.4) translate(-109.2,-16.4)" style="opacity: 1;">
<path d="M-2 0c0 0-4 11.2-4 11.2c0 0 11-4 11-4c0 0-7-7.2-7-7.2Z" fill="#4bbcfd" transform="translate(6,21.6)"></path>
<rect width="137.9" height="32" fill="#4bbcfd" rx="17" transform="translate(101.7,16.4) translate(-101.5,-16.4)"></rect>
</g>
<path fill="#fff" d="M3.3-1.8h3.7v1.8h-5.9v-11.2h2.2Zm6.3-8.1c-0.4 0-0.7-0.1-1-0.4c-0.3-0.2-0.4-0.6-0.4-0.9c0-0.4 .1-0.7 .4-1c.3-0.2 .6-0.3 1-0.3c.4 0 .7 .1 1 .3c.2 .3 .4 .6 .4 1c0 .3-0.2 .7-0.4 .9c-0.3 .3-0.6 .4-1 .4Zm1.1 1v8.9h-2.3v-8.9Zm7.1-0.1c1.1 0 1.9 .3 2.6 1c.6 .7 .9 1.6 .9 2.8v5.2h-2.2v-4.9c0-0.7-0.2-1.2-0.5-1.6c-0.4-0.4-0.9-0.6-1.5-0.6c-0.6 0-1.1 .2-1.4 .6c-0.4 .4-0.6 .9-0.6 1.6v4.9h-2.2v-8.9h2.2v1.1c.3-0.3 .7-0.6 1.2-0.9c.4-0.2 1-0.3 1.5-0.3Zm10.9 9l-3-3.8v3.8h-2.2v-11.8h2.2v6.7l3-3.8h2.9l-3.9 4.5l3.9 4.4Zm10.2-7.6c.3-0.4 .7-0.7 1.2-1c.5-0.3 1.1-0.4 1.7-0.4c.8 0 1.4 .2 2.1 .6c.6 .3 1.1 .9 1.4 1.5c.4 .7 .6 1.5 .6 2.4c0 .9-0.2 1.7-0.6 2.4c-0.3 .7-0.8 1.3-1.4 1.7c-0.7 .4-1.3 .5-2.1 .5c-0.7 0-1.2-0.1-1.7-0.3c-0.5-0.3-0.9-0.6-1.2-1.1v1.3h-2.3v-11.8h2.3Zm4.7 3.1c0-0.5-0.1-1-0.4-1.3c-0.2-0.4-0.5-0.7-0.8-0.9c-0.4-0.2-0.8-0.3-1.2-0.3c-0.4 0-0.8 .1-1.1 .3c-0.4 .2-0.7 .5-0.9 .9c-0.2 .4-0.3 .8-0.3 1.4c0 .5 .1 1 .3 1.4c.2 .4 .5 .7 .9 .9c.3 .2 .7 .3 1.1 .3c.4 0 .8-0.1 1.2-0.3c.3-0.3 .6-0.6 .8-1c.3-0.4 .4-0.8 .4-1.4Zm12.2-4.4v8.9h-2.2v-1.1c-0.3 .4-0.7 .7-1.1 .9c-0.5 .2-1 .3-1.5 .3c-0.7 0-1.4-0.1-1.9-0.4c-0.5-0.3-0.9-0.8-1.2-1.3c-0.3-0.6-0.5-1.3-0.5-2.1v-5.2h2.2v4.9c0 .7 .2 1.3 .6 1.6c.3 .4 .8 .6 1.4 .6c.6 0 1.1-0.2 1.5-0.6c.3-0.3 .5-0.9 .5-1.6v-4.9Zm3.4-1c-0.4 0-0.7-0.1-1-0.4c-0.3-0.2-0.4-0.6-0.4-0.9c0-0.4 .1-0.7 .4-1c.3-0.2 .6-0.3 1-0.3c.4 0 .7 .1 1 .3c.2 .3 .4 .6 .4 1c0 .3-0.2 .7-0.4 .9c-0.3 .3-0.6 .4-1 .4Zm1.1 1v8.9h-2.2v-8.9Zm4.5-2.9v11.8h-2.3v-11.8Zm1.6 7.3c0-0.9 .2-1.7 .5-2.3c.4-0.7 .9-1.3 1.5-1.6c.6-0.4 1.3-0.6 2.1-0.6c.5 0 1.1 .1 1.6 .4c.5 .2 .9 .6 1.2 1v-4.2h2.3v11.8h-2.3v-1.3c-0.2 .4-0.6 .8-1.1 1c-0.5 .3-1.1 .4-1.8 .4c-0.7 0-1.4-0.1-2-0.5c-0.6-0.4-1.1-1-1.5-1.7c-0.3-0.7-0.5-1.5-0.5-2.4Zm7 .1c0-0.6-0.1-1-0.4-1.4c-0.2-0.4-0.5-0.7-0.8-0.9c-0.4-0.2-0.8-0.3-1.2-0.3c-0.4 0-0.8 .1-1.1 .3c-0.4 .2-0.7 .5-0.9 .9c-0.2 .3-0.3 .8-0.3 1.3c0 .6 .1 1 .3 1.4c.2 .4 .5 .7 .9 1c.3 .2 .7 .3 1.1 .3c.4 0 .8-0.1 1.2-0.3c.3-0.2 .6-0.5 .8-0.9c.3-0.4 .4-0.9 .4-1.4Zm5.5-5.5c-0.4 0-0.7-0.1-0.9-0.4c-0.3-0.2-0.4-0.6-0.4-0.9c0-0.4 .1-0.7 .4-1c.2-0.2 .5-0.3 .9-0.3c.4 0 .8 .1 1 .3c.3 .3 .4 .6 .4 1c0 .3-0.1 .7-0.4 .9c-0.2 .3-0.6 .4-1 .4Zm1.1 1v8.9h-2.2v-8.9Zm7.2-0.1c1 0 1.9 .3 2.5 1c.7 .7 1 1.6 1 2.8v5.2h-2.2v-4.9c0-0.7-0.2-1.2-0.6-1.6c-0.3-0.4-0.8-0.6-1.4-0.6c-0.6 0-1.1 .2-1.5 .6c-0.3 .4-0.5 .9-0.5 1.6v4.9h-2.2v-8.9h2.2v1.1c.3-0.3 .7-0.6 1.1-0.9c.5-0.2 1-0.3 1.6-0.3Zm9.1 0c.7 0 1.3 .1 1.8 .4c.5 .2 .9 .6 1.1 1v-1.3h2.3v9c0 .8-0.2 1.5-0.5 2.2c-0.3 .6-0.8 1.1-1.5 1.5c-0.7 .4-1.5 .6-2.4 .6c-1.2 0-2.3-0.3-3.1-0.9c-0.8-0.6-1.2-1.4-1.4-2.4h2.3c.1 .4 .3 .7 .7 1c.4 .2 .9 .3 1.4 .3c.7 0 1.2-0.2 1.6-0.6c.4-0.4 .6-0.9 .6-1.7v-1.4c-0.2 .4-0.6 .8-1.2 1c-0.5 .3-1 .4-1.7 .4c-0.7 0-1.4-0.1-2-0.5c-0.7-0.4-1.1-1-1.5-1.7c-0.4-0.7-0.5-1.5-0.5-2.4c0-0.9 .1-1.7 .5-2.3c.4-0.7 .8-1.3 1.5-1.6c.6-0.4 1.3-0.6 2-0.6Zm2.9 4.6c0-0.6-0.1-1-0.3-1.4c-0.2-0.4-0.5-0.7-0.8-0.9c-0.4-0.2-0.8-0.3-1.2-0.3c-0.4 0-0.8 .1-1.2 .3c-0.3 .2-0.6 .5-0.8 .9c-0.2 .3-0.3 .8-0.3 1.3c0 .6 .1 1 .3 1.4c.2 .4 .5 .7 .8 1c.4 .2 .8 .3 1.2 .3c.4 0 .8-0.1 1.2-0.3c.3-0.2 .6-0.5 .8-0.9c.2-0.4 .3-0.9 .3-1.4Z" mask="url(#mka-2)" transform="translate(17.1,21.6)"></path>
</g>
</g>
<g mask="url(#mka-4)" transform="translate(109.2,202.8) translate(-109.2,-16.4)">
<g id="globey-task card-3" transform="translate(109.19999694824219,16.399999618530273)  translate(-109.2,0) translate(0,-16.4)">
<g id="globey-speech bubble-2" opacity="0" transform="translate(109.2,16.4) translate(-109.2,-16.4)" style="opacity: 1;">
<path d="M-2 0c0 0-4 11.2-4 11.2c0 0 11-4 11-4c0 0-7-7.2-7-7.2Z" fill="#4bbcfd" transform="translate(6,21.6)"></path>
<rect width="201.2" height="32" fill="#4bbcfd" rx="17" transform="translate(101.7,16.4) translate(-101.5,-16.4)"></rect>
</g>
<path fill="#fff" d="M.6-5.6c0-1.1 .2-2.1 .7-3c.5-0.8 1.2-1.5 2-2c.9-0.5 1.9-0.7 2.9-0.7c1.3 0 2.4 .3 3.3 .9c.9 .7 1.6 1.6 2 2.7h-2.6c-0.3-0.5-0.6-0.9-1.1-1.2c-0.4-0.3-1-0.4-1.6-0.4c-0.6 0-1.2 .2-1.7 .5c-0.5 .3-0.9 .7-1.2 1.2c-0.3 .6-0.4 1.3-0.4 2c0 .7 .1 1.4 .4 1.9c.3 .6 .7 1 1.2 1.3c.5 .3 1.1 .5 1.7 .5c.6 0 1.2-0.1 1.6-0.4c.5-0.3 .8-0.7 1.1-1.2h2.6c-0.4 1.1-1.1 2-2 2.6c-0.9 .7-2 1-3.3 1c-1 0-2-0.2-2.9-0.7c-0.8-0.5-1.5-1.2-2-2.1c-0.5-0.8-0.7-1.8-0.7-2.9Zm15-1.9c.3-0.5 .7-0.8 1.2-1.1c.4-0.3 .9-0.4 1.5-0.4v2.4h-0.5c-0.8 0-1.3 .1-1.6 .5c-0.4 .3-0.6 .9-0.6 1.7v4.4h-2.2v-8.9h2.2Zm12.5 2.9c0 .3 0 .6-0.1 .8h-6.4c0 .7 .2 1.2 .6 1.5c.4 .4 .9 .6 1.5 .6c.8 0 1.4-0.4 1.8-1.1h2.4c-0.3 .9-0.8 1.6-1.5 2.1c-0.7 .6-1.6 .8-2.7 .8c-0.8 0-1.6-0.1-2.3-0.5c-0.6-0.4-1.2-0.9-1.6-1.6c-0.3-0.7-0.5-1.5-0.5-2.4c0-0.9 .2-1.8 .5-2.4c.4-0.7 .9-1.3 1.6-1.6c.7-0.4 1.5-0.6 2.3-0.6c.9 0 1.6 .2 2.3 .5c.7 .4 1.2 .9 1.5 1.6c.4 .6 .6 1.4 .6 2.3Zm-2.3-0.7c0-0.5-0.2-1-0.6-1.3c-0.5-0.4-1-0.6-1.5-0.6c-0.6 0-1.1 .2-1.4 .5c-0.4 .4-0.6 .8-0.7 1.4Zm3.4 .8c0-0.9 .1-1.7 .5-2.3c.3-0.7 .8-1.3 1.4-1.6c.7-0.4 1.3-0.6 2.1-0.6c.7 0 1.2 .1 1.7 .4c.5 .3 .9 .6 1.2 1v-1.3h2.3v8.9h-2.3v-1.3c-0.3 .4-0.7 .8-1.2 1c-0.5 .3-1.1 .4-1.7 .4c-0.8 0-1.4-0.1-2.1-0.5c-0.6-0.4-1.1-1-1.4-1.7c-0.4-0.7-0.5-1.5-0.5-2.4Zm6.9 .1c0-0.6-0.1-1-0.3-1.4c-0.2-0.4-0.5-0.7-0.9-0.9c-0.3-0.2-0.7-0.3-1.1-0.3c-0.4 0-0.8 .1-1.2 .3c-0.3 .2-0.6 .5-0.8 .9c-0.2 .3-0.4 .8-0.4 1.3c0 .6 .2 1 .4 1.4c.2 .4 .5 .7 .8 1c.4 .2 .8 .3 1.2 .3c.4 0 .8-0.1 1.1-0.3c.4-0.2 .7-0.5 .9-0.9c.2-0.4 .3-0.9 .3-1.4Zm7.1-2.6v4.3c0 .3 .1 .5 .2 .6c.1 .1 .4 .2 .7 .2h1.1v1.9h-1.4c-1.9 0-2.9-0.9-2.9-2.8v-4.2h-1v-1.9h1v-2.2h2.3v2.2h2v1.9Zm11.8 2.4c0 .3 0 .6 0 .8h-6.5c0 .7 .2 1.2 .6 1.5c.4 .4 .9 .6 1.5 .6c.8 0 1.4-0.4 1.8-1.1h2.4c-0.3 .9-0.8 1.6-1.5 2.1c-0.7 .6-1.6 .8-2.7 .8c-0.8 0-1.6-0.1-2.2-0.5c-0.7-0.4-1.3-0.9-1.6-1.6c-0.4-0.7-0.6-1.5-0.6-2.4c0-0.9 .2-1.8 .6-2.4c.3-0.7 .9-1.3 1.5-1.6c.7-0.4 1.5-0.6 2.3-0.6c.9 0 1.6 .2 2.3 .5c.7 .4 1.2 .9 1.6 1.6c.3 .6 .5 1.4 .5 2.3Zm-2.3-0.7c0-0.5-0.2-1-0.6-1.3c-0.4-0.4-0.9-0.6-1.5-0.6c-0.6 0-1 .2-1.4 .5c-0.4 .4-0.6 .8-0.7 1.4Zm18.8-3.7c1.1 0 1.9 .3 2.6 1c.7 .7 1 1.6 1 2.8v5.2h-2.2v-4.9c0-0.7-0.2-1.2-0.6-1.6c-0.3-0.4-0.8-0.5-1.4-0.5c-0.6 0-1.1 .1-1.5 .5c-0.3 .4-0.5 .9-0.5 1.6v4.9h-2.2v-4.9c0-0.7-0.2-1.2-0.6-1.6c-0.3-0.4-0.8-0.5-1.4-0.5c-0.6 0-1.1 .1-1.5 .5c-0.3 .4-0.5 .9-0.5 1.6v4.9h-2.2v-8.9h2.2v1.1c.3-0.4 .7-0.7 1.1-0.9c.5-0.2 1-0.3 1.5-0.3c.7 0 1.3 .2 1.9 .4c.5 .3 .9 .8 1.2 1.3c.3-0.5 .7-0.9 1.3-1.2c.5-0.3 1.1-0.5 1.8-0.5Zm9.7 9.1c-0.9 0-1.7-0.1-2.3-0.5c-0.7-0.4-1.3-0.9-1.6-1.6c-0.4-0.7-0.6-1.5-0.6-2.4c0-0.9 .2-1.7 .6-2.4c.4-0.7 .9-1.3 1.6-1.6c.7-0.4 1.5-0.6 2.3-0.6c.9 0 1.7 .2 2.3 .6c.7 .3 1.3 .9 1.7 1.6c.4 .7 .6 1.5 .6 2.4c0 .9-0.2 1.7-0.6 2.4c-0.4 .7-1 1.2-1.7 1.6c-0.7 .4-1.5 .5-2.3 .5Zm0-1.9c.4 0 .8-0.1 1.1-0.3c.4-0.2 .7-0.5 .9-0.9c.2-0.4 .3-0.9 .3-1.4c0-0.9-0.2-1.5-0.7-2c-0.4-0.4-1-0.7-1.6-0.7c-0.6 0-1.2 .3-1.6 .7c-0.4 .5-0.7 1.1-0.7 2c0 .8 .3 1.5 .7 1.9c.4 .5 .9 .7 1.6 .7Zm8.5-5.7c.3-0.5 .6-0.8 1.1-1.1c.5-0.3 1-0.4 1.6-0.4v2.4h-0.6c-0.7 0-1.2 .1-1.6 .5c-0.3 .3-0.5 .9-0.5 1.7v4.4h-2.3v-8.9h2.3Zm12.4 2.9c0 .3 0 .6 0 .8h-6.5c.1 .7 .3 1.2 .7 1.5c.4 .4 .8 .6 1.4 .6c.9 0 1.4-0.4 1.8-1.1h2.4c-0.2 .9-0.7 1.6-1.5 2.1c-0.7 .6-1.6 .8-2.6 .8c-0.9 0-1.6-0.1-2.3-0.5c-0.7-0.4-1.2-0.9-1.6-1.6c-0.4-0.7-0.6-1.5-0.6-2.4c0-0.9 .2-1.8 .6-2.4c.4-0.7 .9-1.3 1.6-1.6c.6-0.4 1.4-0.6 2.3-0.6c.8 0 1.6 .2 2.2 .5c.7 .4 1.2 .9 1.6 1.6c.4 .6 .5 1.4 .5 2.3Zm-2.3-0.7c0-0.5-0.2-1-0.6-1.3c-0.4-0.4-0.9-0.6-1.5-0.6c-0.5 0-1 .2-1.4 .5c-0.4 .4-0.6 .8-0.7 1.4Zm7.2 .9c0-0.9 .2-1.8 .6-2.4c.3-0.7 .9-1.3 1.5-1.6c.7-0.4 1.4-0.6 2.3-0.6c1.1 0 2 .3 2.7 .8c.7 .6 1.2 1.3 1.5 2.3h-2.4c-0.2-0.4-0.4-0.7-0.7-0.9c-0.3-0.2-0.7-0.3-1.1-0.3c-0.7 0-1.2 .2-1.5 .7c-0.4 .5-0.6 1.1-0.6 2c0 .8 .2 1.5 .6 1.9c.3 .5 .8 .7 1.5 .7c.9 0 1.5-0.4 1.8-1.2h2.4c-0.3 1-0.8 1.7-1.5 2.3c-0.7 .6-1.6 .8-2.7 .8c-0.9 0-1.6-0.1-2.3-0.5c-0.6-0.4-1.2-0.9-1.5-1.6c-0.4-0.7-0.6-1.5-0.6-2.4Zm14.1 4.5c-0.8 0-1.6-0.1-2.3-0.5c-0.6-0.4-1.2-0.9-1.6-1.6c-0.4-0.7-0.5-1.5-0.5-2.4c0-0.9 .2-1.7 .6-2.4c.4-0.7 .9-1.3 1.6-1.6c.7-0.4 1.5-0.6 2.3-0.6c.9 0 1.6 .2 2.3 .6c.7 .3 1.3 .9 1.7 1.6c.4 .7 .6 1.5 .6 2.4c0 .9-0.2 1.7-0.6 2.4c-0.5 .7-1 1.2-1.7 1.6c-0.7 .4-1.5 .5-2.4 .5Zm0-1.9c.5 0 .8-0.1 1.2-0.3c.4-0.2 .6-0.5 .8-0.9c.3-0.4 .4-0.9 .4-1.4c0-0.9-0.3-1.5-0.7-2c-0.4-0.4-1-0.7-1.6-0.7c-0.7 0-1.2 .3-1.6 .7c-0.5 .5-0.7 1.1-0.7 2c0 .8 .2 1.5 .7 1.9c.4 .5 .9 .7 1.5 .7Zm11.2-7.2c1.1 0 1.9 .3 2.6 1c.6 .7 1 1.6 1 2.8v5.2h-2.3v-4.9c0-0.7-0.2-1.2-0.5-1.6c-0.4-0.4-0.8-0.6-1.4-0.6c-0.7 0-1.1 .2-1.5 .6c-0.4 .4-0.5 .9-0.5 1.6v4.9h-2.3v-8.9h2.3v1.1c.3-0.3 .6-0.6 1.1-0.9c.5-0.2 1-0.3 1.5-0.3Zm8.3 2v4.3c0 .3 .1 .5 .2 .6c.2 .1 .4 .2 .7 .2h1.1v1.9h-1.4c-1.9 0-2.9-0.9-2.9-2.8v-4.2h-1v-1.9h1v-2.2h2.3v2.2h2v1.9Zm11.8 2.4c0 .3 0 .6 0 .8h-6.5c0 .7 .3 1.2 .7 1.5c.4 .4 .8 .6 1.4 .6c.9 0 1.4-0.4 1.8-1.1h2.4c-0.2 .9-0.7 1.6-1.5 2.1c-0.7 .6-1.6 .8-2.6 .8c-0.9 0-1.6-0.1-2.3-0.5c-0.7-0.4-1.2-0.9-1.6-1.6c-0.4-0.7-0.6-1.5-0.6-2.4c0-0.9 .2-1.8 .6-2.4c.4-0.7 .9-1.3 1.5-1.6c.7-0.4 1.5-0.6 2.4-0.6c.8 0 1.6 .2 2.2 .5c.7 .4 1.2 .9 1.6 1.6c.4 .6 .5 1.4 .5 2.3Zm-2.3-0.7c0-0.5-0.2-1-0.6-1.3c-0.4-0.4-0.9-0.6-1.5-0.6c-0.5 0-1 .2-1.4 .5c-0.4 .4-0.6 .8-0.7 1.4Zm8.9-3.7c1 0 1.9 .3 2.5 1c.7 .7 1 1.6 1 2.8v5.2h-2.2v-4.9c0-0.7-0.2-1.2-0.5-1.6c-0.4-0.4-0.9-0.6-1.5-0.6c-0.6 0-1.1 .2-1.5 .6c-0.3 .4-0.5 .9-0.5 1.6v4.9h-2.2v-8.9h2.2v1.1c.3-0.3 .7-0.6 1.2-0.9c.4-0.2 .9-0.3 1.5-0.3Zm8.3 2v4.3c0 .3 0 .5 .2 .6c.1 .1 .4 .2 .7 .2h1v1.9h-1.4c-1.9 0-2.8-0.9-2.8-2.8v-4.2h-1.1v-1.9h1.1v-2.2h2.3v2.2h1.9v1.9Z" mask="url(#mka-3)" transform="translate(17.1,21.6)"></path>
</g>
</g>
<g mask="url(#mka-6)" transform="translate(109.2,159.3) translate(-109.2,-16.4)">
<g id="globey-task card-4" transform="translate(109.19999694824219,16.399999618530273)  translate(-109.2,0) translate(0,-16.4)">
<g id="globey-speech bubble-3" opacity="0" transform="translate(109.2,16.4) translate(-109.2,-16.4)" style="opacity: 1;">
<path d="M-2 0c0 0-4 11.2-4 11.2c0 0 11-4 11-4c0 0-7-7.2-7-7.2Z" fill="#4bbcfd" transform="translate(6,21.6)"></path>
<rect width="152.6" height="32" fill="#4bbcfd" rx="17" transform="translate(101.7,16.4) translate(-101.5,-16.4)"></rect>
</g>
<path fill="#fff" d="M16-11.2l-3.1 11.2h-2.6l-2.1-8l-2.2 8h-2.6l-3-11.2h2.4l1.9 8.7l2.3-8.7h2.5l2.1 8.7l2-8.7Zm9.7 6.6c0 .3 0 .6 0 .8h-6.5c0 .7 .3 1.2 .7 1.5c.4 .4 .8 .6 1.4 .6c.9 0 1.4-0.4 1.8-1.1h2.4c-0.2 .9-0.7 1.6-1.5 2.1c-0.7 .6-1.6 .8-2.6 .8c-0.9 0-1.7-0.1-2.3-0.5c-0.7-0.4-1.2-0.9-1.6-1.6c-0.4-0.7-0.6-1.5-0.6-2.4c0-0.9 .2-1.8 .6-2.4c.4-0.7 .9-1.3 1.5-1.6c.7-0.4 1.5-0.6 2.4-0.6c.8 0 1.6 .2 2.2 .5c.7 .4 1.2 .9 1.6 1.6c.4 .6 .5 1.4 .5 2.3Zm-2.3-0.7c0-0.5-0.2-1-0.6-1.3c-0.4-0.4-0.9-0.6-1.5-0.6c-0.6 0-1 .2-1.4 .5c-0.4 .4-0.6 .8-0.7 1.4Zm6.2-2.3c.3-0.4 .7-0.7 1.2-1c.5-0.3 1.1-0.4 1.7-0.4c.8 0 1.5 .2 2.1 .6c.6 .3 1.1 .9 1.4 1.5c.4 .7 .6 1.5 .6 2.4c0 .9-0.2 1.7-0.6 2.4c-0.3 .7-0.8 1.3-1.4 1.7c-0.6 .4-1.3 .5-2.1 .5c-0.6 0-1.2-0.1-1.7-0.3c-0.5-0.3-0.9-0.6-1.2-1.1v1.3h-2.2v-11.8h2.2Zm4.7 3.1c0-0.5-0.1-1-0.3-1.3c-0.2-0.4-0.5-0.7-0.9-0.9c-0.4-0.2-0.7-0.3-1.2-0.3c-0.4 0-0.7 .1-1.1 .3c-0.4 .2-0.6 .5-0.9 .9c-0.2 .4-0.3 .8-0.3 1.4c0 .5 .1 1 .3 1.4c.3 .4 .5 .7 .9 .9c.4 .2 .7 .3 1.1 .3c.5 0 .8-0.1 1.2-0.3c.4-0.3 .7-0.6 .9-1c.2-0.4 .3-0.8 .3-1.4Zm7.3 4.6c-0.7 0-1.4-0.1-1.9-0.3c-0.6-0.3-1.1-0.7-1.4-1.1c-0.4-0.5-0.5-1-0.6-1.5h2.3c0 .3 .2 .6 .5 .8c.3 .3 .7 .4 1.1 .4c.4 0 .7-0.1 1-0.3c.2-0.1 .3-0.4 .3-0.6c0-0.3-0.1-0.5-0.4-0.7c-0.3-0.1-0.8-0.3-1.4-0.4c-0.7-0.2-1.2-0.4-1.6-0.5c-0.4-0.2-0.8-0.5-1.1-0.8c-0.3-0.4-0.5-0.9-0.5-1.5c0-0.4 .2-0.9 .5-1.3c.2-0.4 .7-0.7 1.2-1c.5-0.2 1.1-0.3 1.8-0.3c1.1 0 1.9 .3 2.6 .8c.6 .5 .9 1.2 1 2.1h-2.1c-0.1-0.3-0.2-0.6-0.5-0.8c-0.2-0.2-0.6-0.3-1-0.3c-0.4 0-0.7 0-1 .2c-0.2 .1-0.3 .3-0.3 .6c0 .3 .2 .5 .5 .7c.3 .2 .7 .3 1.4 .5c.6 .1 1.1 .3 1.5 .5c.5 .1 .8 .4 1.1 .8c.3 .3 .5 .8 .5 1.4c0 .5-0.1 .9-0.4 1.3c-0.3 .5-0.7 .8-1.2 1c-0.6 .2-1.2 .3-1.9 .3Zm6.5-10c-0.4 0-0.8-0.1-1-0.4c-0.3-0.2-0.4-0.6-0.4-0.9c0-0.4 .1-0.7 .4-1c.2-0.2 .6-0.3 1-0.3c.4 0 .7 .1 1 .3c.2 .3 .3 .6 .3 1c0 .3-0.1 .7-0.3 .9c-0.3 .3-0.6 .4-1 .4Zm1.1 1v8.9h-2.3v-8.9Zm4.8 1.9v4.3c0 .3 .1 .5 .2 .6c.2 .1 .4 .2 .7 .2h1.1v1.9h-1.4c-1.9 0-2.9-0.9-2.9-2.8v-4.2h-1v-1.9h1v-2.2h2.3v2.2h2v1.9Zm11.8 2.4c0 .3 0 .6 0 .8h-6.5c0 .7 .3 1.2 .7 1.5c.4 .4 .8 .6 1.4 .6c.8 0 1.4-0.4 1.8-1.1h2.4c-0.3 .9-0.7 1.6-1.5 2.1c-0.7 .6-1.6 .8-2.6 .8c-0.9 0-1.7-0.1-2.3-0.5c-0.7-0.4-1.2-0.9-1.6-1.6c-0.4-0.7-0.6-1.5-0.6-2.4c0-0.9 .2-1.8 .6-2.4c.3-0.7 .9-1.3 1.5-1.6c.7-0.4 1.5-0.6 2.4-0.6c.8 0 1.6 .2 2.2 .5c.7 .4 1.2 .9 1.6 1.6c.3 .6 .5 1.4 .5 2.3Zm-2.3-0.7c0-0.5-0.2-1-0.6-1.3c-0.4-0.4-0.9-0.6-1.5-0.6c-0.6 0-1 .2-1.4 .5c-0.4 .4-0.6 .8-0.7 1.4Zm16 .7c0 .3 0 .6 0 .8h-6.5c0 .7 .2 1.2 .6 1.5c.4 .4 .9 .6 1.5 .6c.8 0 1.4-0.4 1.8-1.1h2.4c-0.3 .9-0.8 1.6-1.5 2.1c-0.7 .6-1.6 .8-2.7 .8c-0.8 0-1.6-0.1-2.2-0.5c-0.7-0.4-1.3-0.9-1.6-1.6c-0.4-0.7-0.6-1.5-0.6-2.4c0-0.9 .2-1.8 .6-2.4c.3-0.7 .9-1.3 1.5-1.6c.7-0.4 1.5-0.6 2.3-0.6c.9 0 1.6 .2 2.3 .5c.7 .4 1.2 .9 1.6 1.6c.3 .6 .5 1.4 .5 2.3Zm-2.3-0.7c0-0.5-0.2-1-0.6-1.3c-0.4-0.4-0.9-0.6-1.5-0.6c-0.6 0-1 .2-1.4 .5c-0.4 .4-0.6 .8-0.7 1.4Zm6.2-2.2c.3-0.5 .7-0.8 1.1-1.1c.5-0.3 1-0.4 1.6-0.4v2.4h-0.6c-0.7 0-1.2 .1-1.6 .5c-0.3 .3-0.5 .9-0.5 1.7v4.4h-2.2v-8.9h2.2Zm6.5 0c.2-0.5 .6-0.8 1.1-1.1c.5-0.3 1-0.4 1.6-0.4v2.4h-0.6c-0.7 0-1.2 .1-1.6 .5c-0.4 .3-0.5 .9-0.5 1.7v4.4h-2.3v-8.9h2.3Zm8.1 7.6c-0.8 0-1.6-0.1-2.3-0.5c-0.7-0.4-1.2-0.9-1.6-1.6c-0.4-0.7-0.6-1.5-0.6-2.4c0-0.9 .2-1.7 .6-2.4c.4-0.7 1-1.3 1.7-1.6c.7-0.4 1.4-0.6 2.3-0.6c.8 0 1.6 .2 2.3 .6c.7 .3 1.2 .9 1.6 1.6c.4 .7 .6 1.5 .6 2.4c0 .9-0.2 1.7-0.6 2.4c-0.4 .7-0.9 1.2-1.6 1.6c-0.7 .4-1.5 .5-2.4 .5Zm0-1.9c.4 0 .8-0.1 1.2-0.3c.3-0.2 .6-0.5 .8-0.9c.2-0.4 .3-0.9 .3-1.4c0-0.9-0.2-1.5-0.6-2c-0.5-0.4-1-0.7-1.6-0.7c-0.7 0-1.2 .3-1.7 .7c-0.4 .5-0.6 1.1-0.6 2c0 .8 .2 1.5 .6 1.9c.5 .5 1 .7 1.6 .7Zm8.5-5.7c.3-0.5 .7-0.8 1.2-1.1c.4-0.3 1-0.4 1.6-0.4v2.4h-0.6c-0.7 0-1.3 .1-1.6 .5c-0.4 .3-0.6 .9-0.6 1.7v4.4h-2.2v-8.9h2.2Zm7.7 7.6c-0.8 0-1.4-0.1-2-0.3c-0.6-0.3-1-0.7-1.4-1.1c-0.3-0.5-0.5-1-0.5-1.5h2.2c.1 .3 .2 .6 .5 .8c.3 .3 .7 .4 1.1 .4c.5 0 .8-0.1 1-0.3c.3-0.1 .4-0.4 .4-0.6c0-0.3-0.2-0.5-0.4-0.7c-0.3-0.1-0.8-0.3-1.4-0.4c-0.7-0.2-1.2-0.4-1.7-0.5c-0.4-0.2-0.8-0.5-1.1-0.8c-0.3-0.4-0.4-0.9-0.4-1.5c0-0.4 .1-0.9 .4-1.3c.3-0.4 .7-0.7 1.2-1c.6-0.2 1.2-0.3 1.9-0.3c1 0 1.9 .3 2.5 .8c.6 .5 1 1.2 1.1 2.1h-2.2c0-0.3-0.2-0.6-0.4-0.8c-0.3-0.2-0.6-0.3-1.1-0.3c-0.4 0-0.7 0-0.9 .2c-0.2 .1-0.3 .3-0.3 .6c0 .3 .1 .5 .4 .7c.3 .2 .8 .3 1.4 .5c.6 .1 1.2 .3 1.6 .5c.4 .1 .8 .4 1.1 .8c.3 .3 .4 .8 .4 1.4c0 .5-0.1 .9-0.4 1.3c-0.3 .5-0.7 .8-1.2 1c-0.5 .2-1.1 .3-1.8 .3Z" mask="url(#mka-5)" transform="translate(17.1,21.6)"></path>
</g>
</g>
<g mask="url(#mka-8)" transform="translate(109.2,115.8) translate(-109.2,-16.4)">
<g id="globey-task card-5" transform="translate(109.19999694824219,16.399999618530273)  translate(-109.2,0) translate(0,-16.4)">
<g id="globey-speech bubble-4" opacity="0" transform="translate(109.2,16.4) translate(-109.2,-16.4)" style="opacity: 1;">
<path d="M-2 0c0 0-4 11.2-4 11.2c0 0 11-4 11-4c0 0-7-7.2-7-7.2Z" fill="#4bbcfd" transform="translate(6,21.6)"></path>
<rect width="169.4" height="32" fill="#4bbcfd" rx="17" transform="translate(101.7,16.4) translate(-101.5,-16.4)"></rect>
</g>
<path fill="#fff" d="M.6-5.6c0-1.1 .2-2.1 .7-3c.5-0.8 1.2-1.5 2-2c.9-0.5 1.9-0.7 2.9-0.7c1.3 0 2.4 .3 3.3 .9c.9 .7 1.6 1.6 2 2.7h-2.6c-0.3-0.5-0.6-0.9-1.1-1.2c-0.4-0.3-1-0.4-1.6-0.4c-0.6 0-1.2 .2-1.7 .5c-0.5 .3-0.9 .7-1.2 1.2c-0.3 .6-0.4 1.3-0.4 2c0 .7 .1 1.4 .4 1.9c.3 .6 .7 1 1.2 1.3c.5 .3 1.1 .5 1.7 .5c.6 0 1.2-0.1 1.6-0.4c.5-0.3 .8-0.7 1.1-1.2h2.6c-0.4 1.1-1.1 2-2 2.6c-0.9 .7-2 1-3.3 1c-1 0-2-0.2-2.9-0.7c-0.8-0.5-1.5-1.2-2-2.1c-0.5-0.8-0.7-1.8-0.7-2.9Zm13.9-4.3c-0.4 0-0.7-0.1-1-0.4c-0.2-0.2-0.4-0.6-0.4-0.9c0-0.4 .2-0.7 .4-1c.3-0.2 .6-0.3 1-0.3c.4 0 .7 .1 1 .3c.3 .3 .4 .6 .4 1c0 .3-0.1 .7-0.4 .9c-0.3 .3-0.6 .4-1 .4Zm1.1 1v8.9h-2.2v-8.9Zm4.8 1.9v4.3c0 .3 .1 .5 .3 .6c.1 .1 .3 .2 .7 .2h1v1.9h-1.4c-1.9 0-2.8-0.9-2.8-2.8v-4.2h-1.1v-1.9h1.1v-2.2h2.2v2.2h2v1.9Zm3.1 2.5c0-0.9 .1-1.7 .5-2.3c.4-0.7 .8-1.3 1.5-1.6c.6-0.4 1.3-0.6 2-0.6c.7 0 1.3 .1 1.7 .4c.5 .3 .9 .6 1.2 1v-1.3h2.3v8.9h-2.3v-1.3c-0.2 .4-0.6 .8-1.2 1c-0.5 .3-1 .4-1.7 .4c-0.7 0-1.4-0.1-2-0.5c-0.7-0.4-1.1-1-1.5-1.7c-0.4-0.7-0.5-1.5-0.5-2.4Zm6.9 .1c0-0.6-0.1-1-0.3-1.4c-0.2-0.4-0.5-0.7-0.8-0.9c-0.4-0.2-0.8-0.3-1.2-0.3c-0.4 0-0.8 .1-1.2 .3c-0.3 .2-0.6 .5-0.8 .9c-0.2 .3-0.3 .8-0.3 1.3c0 .6 .1 1 .3 1.4c.2 .4 .5 .7 .8 1c.4 .2 .8 .3 1.2 .3c.4 0 .8-0.1 1.2-0.3c.3-0.2 .6-0.5 .8-0.9c.2-0.4 .3-0.9 .3-1.4Zm7.1-2.6v4.3c0 .3 .1 .5 .2 .6c.2 .1 .4 .2 .7 .2h1.1v1.9h-1.4c-1.9 0-2.9-0.9-2.9-2.8v-4.2h-1v-1.9h1v-2.2h2.3v2.2h2v1.9Zm4.7-2.9c-0.4 0-0.7-0.1-1-0.4c-0.2-0.2-0.4-0.6-0.4-0.9c0-0.4 .2-0.7 .4-1c.3-0.2 .6-0.3 1-0.3c.4 0 .7 .1 1 .3c.3 .3 .4 .6 .4 1c0 .3-0.1 .7-0.4 .9c-0.3 .3-0.6 .4-1 .4Zm1.1 1v8.9h-2.2v-8.9Zm6.2 9c-0.9 0-1.6-0.1-2.3-0.5c-0.7-0.4-1.2-0.9-1.6-1.6c-0.4-0.7-0.6-1.5-0.6-2.4c0-0.9 .2-1.7 .6-2.4c.4-0.7 .9-1.3 1.6-1.6c.7-0.4 1.5-0.6 2.3-0.6c.9 0 1.7 .2 2.4 .6c.7 .3 1.2 .9 1.6 1.6c.4 .7 .6 1.5 .6 2.4c0 .9-0.2 1.7-0.6 2.4c-0.4 .7-1 1.2-1.7 1.6c-0.7 .4-1.5 .5-2.3 .5Zm0-1.9c.4 0 .8-0.1 1.1-0.3c.4-0.2 .7-0.5 .9-0.9c.2-0.4 .3-0.9 .3-1.4c0-0.9-0.2-1.5-0.7-2c-0.4-0.4-1-0.7-1.6-0.7c-0.6 0-1.2 .3-1.6 .7c-0.4 .5-0.6 1.1-0.6 2c0 .8 .2 1.5 .6 1.9c.4 .5 .9 .7 1.6 .7Zm11.2-7.2c1 0 1.9 .3 2.5 1c.7 .7 1 1.6 1 2.8v5.2h-2.2v-4.9c0-0.7-0.2-1.2-0.6-1.6c-0.3-0.4-0.8-0.6-1.4-0.6c-0.6 0-1.1 .2-1.5 .6c-0.3 .4-0.5 .9-0.5 1.6v4.9h-2.3v-8.9h2.3v1.1c.3-0.3 .7-0.6 1.1-0.9c.5-0.2 1-0.3 1.6-0.3Zm11.7 1.4c.3-0.4 .7-0.7 1.2-1c.5-0.3 1.1-0.4 1.7-0.4c.8 0 1.4 .2 2.1 .6c.6 .3 1.1 .9 1.4 1.5c.4 .7 .6 1.5 .6 2.4c0 .9-0.2 1.7-0.6 2.4c-0.3 .7-0.8 1.3-1.4 1.7c-0.7 .4-1.3 .5-2.1 .5c-0.7 0-1.2-0.1-1.7-0.3c-0.5-0.3-0.9-0.6-1.2-1.1v1.3h-2.3v-11.8h2.3Zm4.7 3.1c0-0.5-0.1-1-0.4-1.3c-0.2-0.4-0.5-0.7-0.8-0.9c-0.4-0.2-0.8-0.3-1.2-0.3c-0.4 0-0.8 .1-1.1 .3c-0.4 .2-0.7 .5-0.9 .9c-0.2 .4-0.3 .8-0.3 1.4c0 .5 .1 1 .3 1.4c.2 .4 .5 .7 .9 .9c.3 .2 .7 .3 1.1 .3c.4 0 .8-0.1 1.2-0.3c.3-0.3 .6-0.6 .8-1c.3-0.4 .4-0.8 .4-1.4Zm12.2-4.4v8.9h-2.2v-1.1c-0.3 .4-0.7 .7-1.1 .9c-0.5 .2-1 .3-1.5 .3c-0.7 0-1.4-0.1-1.9-0.4c-0.5-0.3-0.9-0.8-1.2-1.3c-0.3-0.6-0.5-1.3-0.5-2.1v-5.2h2.2v4.9c0 .7 .2 1.3 .6 1.6c.3 .4 .8 .6 1.4 .6c.6 0 1.1-0.2 1.5-0.6c.3-0.3 .5-0.9 .5-1.6v-4.9Zm3.4-1c-0.4 0-0.7-0.1-1-0.4c-0.3-0.2-0.4-0.6-0.4-0.9c0-0.4 .1-0.7 .4-1c.3-0.2 .6-0.3 1-0.3c.4 0 .7 .1 1 .3c.2 .3 .4 .6 .4 1c0 .3-0.2 .7-0.4 .9c-0.3 .3-0.6 .4-1 .4Zm1.1 1v8.9h-2.2v-8.9Zm4.5-2.9v11.8h-2.3v-11.8Zm1.6 7.3c0-0.9 .2-1.7 .5-2.3c.4-0.7 .9-1.3 1.5-1.6c.6-0.4 1.3-0.6 2.1-0.6c.5 0 1.1 .1 1.6 .4c.5 .2 .9 .6 1.2 1v-4.2h2.3v11.8h-2.3v-1.3c-0.2 .4-0.6 .8-1.1 1c-0.5 .3-1.1 .4-1.8 .4c-0.7 0-1.4-0.1-2-0.5c-0.6-0.4-1.1-1-1.5-1.7c-0.3-0.7-0.5-1.5-0.5-2.4Zm7 .1c0-0.6-0.1-1-0.4-1.4c-0.2-0.4-0.5-0.7-0.8-0.9c-0.4-0.2-0.8-0.3-1.2-0.3c-0.4 0-0.8 .1-1.1 .3c-0.4 .2-0.7 .5-0.9 .9c-0.2 .3-0.3 .8-0.3 1.3c0 .6 .1 1 .3 1.4c.2 .4 .5 .7 .9 1c.3 .2 .7 .3 1.1 .3c.4 0 .8-0.1 1.2-0.3c.3-0.2 .6-0.5 .8-0.9c.3-0.4 .4-0.9 .4-1.4Zm5.5-5.5c-0.4 0-0.7-0.1-0.9-0.4c-0.3-0.2-0.4-0.6-0.4-0.9c0-0.4 .1-0.7 .4-1c.2-0.2 .5-0.3 .9-0.3c.4 0 .8 .1 1 .3c.3 .3 .4 .6 .4 1c0 .3-0.1 .7-0.4 .9c-0.2 .3-0.6 .4-1 .4Zm1.1 1v8.9h-2.2v-8.9Zm7.2-0.1c1 0 1.9 .3 2.5 1c.7 .7 1 1.6 1 2.8v5.2h-2.2v-4.9c0-0.7-0.2-1.2-0.6-1.6c-0.3-0.4-0.8-0.6-1.4-0.6c-0.6 0-1.1 .2-1.5 .6c-0.3 .4-0.5 .9-0.5 1.6v4.9h-2.2v-8.9h2.2v1.1c.3-0.3 .7-0.6 1.1-0.9c.5-0.2 1-0.3 1.6-0.3Zm9.1 0c.7 0 1.3 .1 1.8 .4c.5 .2 .8 .6 1.1 1v-1.3h2.3v9c0 .8-0.2 1.5-0.5 2.2c-0.3 .6-0.8 1.1-1.5 1.5c-0.7 .4-1.5 .6-2.4 .6c-1.2 0-2.3-0.3-3.1-0.9c-0.8-0.6-1.2-1.4-1.4-2.4h2.3c.1 .4 .3 .7 .7 1c.4 .2 .9 .3 1.4 .3c.7 0 1.2-0.2 1.6-0.6c.4-0.4 .6-0.9 .6-1.7v-1.4c-0.2 .4-0.6 .8-1.2 1c-0.5 .3-1 .4-1.7 .4c-0.7 0-1.4-0.1-2-0.5c-0.7-0.4-1.1-1-1.5-1.7c-0.4-0.7-0.5-1.5-0.5-2.4c0-0.9 .1-1.7 .5-2.3c.4-0.7 .8-1.3 1.5-1.6c.6-0.4 1.3-0.6 2-0.6Zm2.9 4.6c0-0.6-0.1-1-0.3-1.4c-0.2-0.4-0.5-0.7-0.8-0.9c-0.4-0.2-0.8-0.3-1.2-0.3c-0.4 0-0.8 .1-1.2 .3c-0.3 .2-0.6 .5-0.8 .9c-0.2 .3-0.3 .8-0.3 1.3c0 .6 .1 1 .3 1.4c.2 .4 .5 .7 .8 1c.4 .2 .8 .3 1.2 .3c.4 0 .8-0.1 1.2-0.3c.3-0.2 .6-0.5 .8-0.9c.2-0.4 .3-0.9 .3-1.4Z" mask="url(#mka-7)" transform="translate(17.1,21.6)"></path>
</g>
</g>
<g mask="url(#mka-10)" transform="translate(109.2,72.2) translate(-109.2,-16.4)">
<g id="globey-task card-6" transform="translate(109.19999694824219,16.399999618530273)  translate(-109.2,0) translate(0,-16.4)">
<g id="globey-speech bubble-5" opacity="0" transform="translate(109.2,16.4) translate(-109.2,-16.4)" style="opacity: 1;">
<path d="M-2 0c0 0-4 11.2-4 11.2c0 0 11-4 11-4c0 0-7-7.2-7-7.2Z" fill="#4bbcfd" transform="translate(6,21.6)"></path>
<rect width="128.2" height="32" fill="#4bbcfd" rx="17" transform="translate(101.7,16.4) translate(-101.5,-16.4)"></rect>
</g>
<path fill="#fff" d="M6.3 .1c-1.1 0-2-0.2-2.9-0.7c-0.9-0.5-1.6-1.2-2.1-2.1c-0.5-0.8-0.7-1.8-0.7-2.9c0-1.1 .2-2.1 .7-3c.5-0.8 1.2-1.5 2.1-2c.9-0.5 1.8-0.7 2.9-0.7c1 0 2 .2 2.9 .7c.8 .5 1.5 1.2 2 2c.5 .9 .8 1.9 .8 3c0 1.1-0.3 2.1-0.8 2.9c-0.5 .9-1.2 1.6-2 2.1c-0.9 .5-1.9 .7-2.9 .7Zm0-2c.7 0 1.3-0.1 1.8-0.4c.5-0.3 .9-0.8 1.2-1.3c.3-0.6 .4-1.3 .4-2c0-0.8-0.1-1.4-0.4-2c-0.3-0.5-0.7-1-1.2-1.3c-0.5-0.3-1.1-0.4-1.8-0.4c-0.7 0-1.3 .1-1.8 .4c-0.5 .3-0.9 .8-1.2 1.3c-0.3 .6-0.4 1.2-0.4 2c0 .7 .1 1.4 .4 2c.3 .5 .7 1 1.2 1.3c.5 .3 1.1 .4 1.8 .4Zm12.3-7.1c1 0 1.9 .3 2.5 1c.7 .7 1 1.6 1 2.8v5.2h-2.2v-4.9c0-0.7-0.2-1.2-0.6-1.6c-0.3-0.4-0.8-0.6-1.4-0.6c-0.6 0-1.1 .2-1.5 .6c-0.3 .4-0.5 .9-0.5 1.6v4.9h-2.2v-8.9h2.2v1.1c.3-0.3 .7-0.6 1.2-0.9c.4-0.2 .9-0.3 1.5-0.3Zm12.5 2.3v1.9h-6.8v-1.9Zm5.9 6.8c-0.8 0-1.4-0.1-2-0.3c-0.6-0.3-1-0.7-1.4-1.1c-0.3-0.5-0.5-1-0.5-1.5h2.2c.1 .3 .3 .6 .6 .8c.2 .3 .6 .4 1 .4c.5 0 .8-0.1 1-0.3c.3-0.1 .4-0.4 .4-0.6c0-0.3-0.1-0.5-0.4-0.7c-0.3-0.1-0.8-0.3-1.4-0.4c-0.7-0.2-1.2-0.4-1.7-0.5c-0.4-0.2-0.7-0.5-1-0.8c-0.3-0.4-0.5-0.9-0.5-1.5c0-0.4 .1-0.9 .4-1.3c.3-0.4 .7-0.7 1.2-1c.6-0.2 1.2-0.3 1.9-0.3c1.1 0 1.9 .3 2.5 .8c.7 .5 1 1.2 1.1 2.1h-2.2c0-0.3-0.1-0.6-0.4-0.8c-0.3-0.2-0.6-0.3-1.1-0.3c-0.4 0-0.7 0-0.9 .2c-0.2 .1-0.3 .3-0.3 .6c0 .3 .1 .5 .4 .7c.3 .2 .8 .3 1.4 .5c.7 .1 1.2 .3 1.6 .5c.4 .1 .8 .4 1.1 .8c.3 .3 .4 .8 .5 1.4c0 .5-0.2 .9-0.5 1.3c-0.3 .5-0.7 .8-1.2 1c-0.5 .2-1.1 .3-1.8 .3Zm6.4-10c-0.4 0-0.7-0.1-1-0.4c-0.2-0.2-0.3-0.6-0.3-0.9c0-0.4 .1-0.7 .3-1c.3-0.2 .6-0.3 1-0.3c.4 0 .8 .1 1 .3c.3 .3 .4 .6 .4 1c0 .3-0.1 .7-0.4 .9c-0.2 .3-0.6 .4-1 .4Zm1.1 1v8.9h-2.2v-8.9Zm4.9 1.9v4.3c0 .3 0 .5 .2 .6c.1 .1 .4 .2 .7 .2h1v1.9h-1.4c-1.9 0-2.8-0.9-2.8-2.8v-4.2h-1.1v-1.9h1.1v-2.2h2.3v2.2h1.9v1.9Zm11.8 2.4c0 .3 0 .6-0.1 .8h-6.5c.1 .7 .3 1.2 .7 1.5c.4 .4 .9 .6 1.5 .6c.8 0 1.4-0.4 1.7-1.1h2.5c-0.3 .9-0.8 1.6-1.5 2.1c-0.7 .6-1.6 .8-2.7 .8c-0.8 0-1.6-0.1-2.3-0.5c-0.7-0.4-1.2-0.9-1.6-1.6c-0.3-0.7-0.5-1.5-0.5-2.4c0-0.9 .2-1.8 .5-2.4c.4-0.7 .9-1.3 1.6-1.6c.7-0.4 1.4-0.6 2.3-0.6c.9 0 1.6 .2 2.3 .5c.7 .4 1.2 .9 1.5 1.6c.4 .6 .6 1.4 .6 2.3Zm-2.3-0.7c0-0.5-0.3-1-0.7-1.3c-0.4-0.4-0.9-0.6-1.4-0.6c-0.6 0-1.1 .2-1.4 .5c-0.4 .4-0.7 .8-0.7 1.4Zm11.6 5.4c-0.8 0-1.5-0.1-2.1-0.4c-0.6-0.3-1.1-0.6-1.5-1.1c-0.4-0.5-0.5-1.1-0.6-1.8h2.4c.1 .4 .2 .8 .5 1.1c.3 .2 .7 .4 1.2 .4c.6 0 1-0.2 1.3-0.4c.3-0.3 .4-0.6 .4-1c0-0.3-0.1-0.6-0.3-0.8c-0.2-0.2-0.4-0.4-0.7-0.5c-0.3-0.1-0.8-0.3-1.3-0.4c-0.7-0.2-1.3-0.4-1.8-0.6c-0.4-0.3-0.8-0.6-1.1-1c-0.4-0.4-0.5-1-0.5-1.7c0-0.6 .1-1.2 .5-1.7c.3-0.5 .8-0.9 1.4-1.1c.6-0.3 1.2-0.4 2-0.4c1.2 0 2.1 .3 2.8 .8c.7 .6 1.1 1.4 1.2 2.4h-2.4c-0.1-0.4-0.2-0.7-0.5-1c-0.3-0.2-0.7-0.4-1.2-0.4c-0.5 0-0.8 .1-1.1 .4c-0.3 .2-0.4 .5-0.4 .9c0 .3 .1 .6 .3 .8c.2 .2 .5 .3 .7 .5c.3 .1 .8 .2 1.3 .4c.7 .2 1.3 .4 1.8 .6c.4 .2 .8 .6 1.1 1c.4 .4 .5 1 .5 1.7c0 .6-0.1 1.1-0.4 1.6c-0.3 .5-0.8 1-1.4 1.3c-0.6 .3-1.3 .4-2.1 .4Zm8.1-9.5v2.8h3.8v1.8h-3.8v3h4.3v1.8h-6.5v-11.2h6.5v1.8Zm11.5 9.5c-1.1 0-2-0.2-2.9-0.7c-0.9-0.5-1.6-1.2-2.1-2.1c-0.5-0.8-0.7-1.8-0.7-2.9c0-1.1 .2-2.1 .7-3c.5-0.8 1.2-1.5 2.1-2c.9-0.5 1.8-0.7 2.9-0.7c1 0 2 .2 2.9 .7c.8 .5 1.5 1.2 2 2c.5 .9 .8 1.9 .8 3c0 1.1-0.3 2.1-0.8 2.9c-0.5 .9-1.2 1.6-2 2.1c-0.9 .5-1.9 .7-2.9 .7Zm0-2c.7 0 1.2-0.1 1.8-0.4c.5-0.3 .9-0.8 1.2-1.3c.2-0.6 .4-1.3 .4-2c0-0.8-0.2-1.4-0.4-2c-0.3-0.5-0.7-1-1.2-1.3c-0.6-0.3-1.1-0.4-1.8-0.4c-0.7 0-1.3 .1-1.8 .4c-0.5 .3-0.9 .8-1.2 1.3c-0.3 .6-0.4 1.2-0.4 2c0 .7 .1 1.4 .4 2c.3 .5 .7 1 1.2 1.3c.5 .3 1.1 .4 1.8 .4Z" mask="url(#mka-9)" transform="translate(17.1,21.6)"></path>
</g>
</g>
<g mask="url(#mka-12)" transform="translate(109.2,28.7) translate(-109.2,-16.4)">
<g id="globey-task card-7" transform="translate(109.19999694824219,16.399999618530273)  translate(-109.2,0) translate(0,-16.4)">
<g id="globey-speech bubble-7" opacity="0" transform="translate(109.2,16.4) translate(-109.2,-16.4)" style="opacity: 1;">
<path d="M-2 0c0 0-4 11.2-4 11.2c0 0 11-4 11-4c0 0-7-7.2-7-7.2Z" fill="#4bbcfd" transform="translate(6,21.6)"></path>
<rect width="130.4" height="32" fill="#4bbcfd" rx="17" transform="translate(101.7,16.4) translate(-101.5,-16.4)"></rect>
</g>
<path fill="#fff" d="M9.2-7.7c0 .6-0.1 1.1-0.4 1.7c-0.3 .5-0.7 .9-1.3 1.2c-0.6 .4-1.4 .5-2.3 .5h-1.9v4.3h-2.2v-11.2h4.1c.9 0 1.6 .2 2.2 .5c.6 .3 1.1 .7 1.4 1.2c.3 .5 .4 1.1 .4 1.8Zm-4.1 1.6c.6 0 1.1-0.1 1.4-0.4c.3-0.3 .4-0.7 .4-1.2c0-1.1-0.6-1.6-1.8-1.6h-1.8v3.2Zm5.2 1.6c0-0.9 .1-1.7 .5-2.3c.4-0.7 .8-1.3 1.5-1.6c.6-0.4 1.3-0.6 2-0.6c.7 0 1.3 .1 1.7 .4c.5 .3 .9 .6 1.2 1v-1.3h2.3v8.9h-2.3v-1.3c-0.2 .4-0.6 .8-1.2 1c-0.5 .3-1 .4-1.7 .4c-0.8 0-1.4-0.1-2-0.5c-0.7-0.4-1.1-1-1.5-1.7c-0.4-0.7-0.5-1.5-0.5-2.4Zm6.9 .1c0-0.6-0.1-1-0.3-1.4c-0.2-0.4-0.5-0.7-0.8-0.9c-0.4-0.2-0.8-0.3-1.2-0.3c-0.4 0-0.8 .1-1.2 .3c-0.3 .2-0.6 .5-0.8 .9c-0.2 .3-0.3 .8-0.3 1.3c0 .6 .1 1 .3 1.4c.2 .4 .5 .7 .8 1c.4 .2 .8 .3 1.2 .3c.4 0 .8-0.1 1.2-0.3c.3-0.2 .6-0.5 .8-0.9c.2-0.4 .3-0.9 .3-1.4Zm8-4.6c.6 0 1.2 .1 1.7 .4c.5 .2 .9 .6 1.2 1v-1.3h2.2v9c0 .8-0.1 1.5-0.5 2.2c-0.3 .6-0.8 1.1-1.4 1.5c-0.7 .4-1.5 .6-2.4 .6c-1.3 0-2.3-0.3-3.1-0.9c-0.8-0.6-1.3-1.4-1.4-2.4h2.2c.1 .4 .4 .7 .8 1c.4 .2 .8 .3 1.4 .3c.6 0 1.2-0.2 1.6-0.6c.4-0.4 .6-0.9 .6-1.7v-1.4c-0.3 .4-0.7 .8-1.2 1c-0.5 .3-1.1 .4-1.7 .4c-0.8 0-1.5-0.1-2.1-0.5c-0.6-0.4-1.1-1-1.5-1.7c-0.3-0.7-0.5-1.5-0.5-2.4c0-0.9 .2-1.7 .5-2.3c.4-0.7 .9-1.3 1.5-1.6c.6-0.4 1.3-0.6 2.1-0.6Zm2.9 4.6c0-0.6-0.1-1-0.3-1.4c-0.3-0.4-0.5-0.7-0.9-0.9c-0.4-0.2-0.8-0.3-1.2-0.3c-0.4 0-0.8 .1-1.1 .3c-0.4 .2-0.7 .5-0.9 .9c-0.2 .3-0.3 .8-0.3 1.3c0 .6 .1 1 .3 1.4c.2 .4 .5 .7 .9 1c.3 .2 .7 .3 1.1 .3c.4 0 .8-0.1 1.2-0.3c.4-0.2 .6-0.5 .9-0.9c.2-0.4 .3-0.9 .3-1.4Zm12.7-0.2c0 .3-0.1 .6-0.1 .8h-6.5c.1 .7 .3 1.2 .7 1.5c.4 .4 .9 .6 1.4 .6c.9 0 1.5-0.4 1.8-1.1h2.4c-0.2 .9-0.7 1.6-1.4 2.1c-0.8 .6-1.6 .8-2.7 .8c-0.9 0-1.6-0.1-2.3-0.5c-0.7-0.4-1.2-0.9-1.6-1.6c-0.4-0.7-0.6-1.5-0.6-2.4c0-0.9 .2-1.8 .6-2.4c.4-0.7 .9-1.3 1.6-1.6c.6-0.4 1.4-0.6 2.3-0.6c.8 0 1.6 .2 2.3 .5c.6 .4 1.1 .9 1.5 1.6c.4 .6 .6 1.4 .6 2.3Zm-2.4-0.7c0-0.5-0.2-1-0.6-1.3c-0.4-0.4-0.9-0.6-1.5-0.6c-0.5 0-1 .2-1.4 .5c-0.3 .4-0.6 .8-0.7 1.4Zm11.2 5.4c-0.7 0-1.4-0.1-1.9-0.3c-0.6-0.3-1.1-0.7-1.4-1.1c-0.4-0.5-0.5-1-0.6-1.5h2.3c0 .3 .2 .6 .5 .8c.3 .3 .7 .4 1.1 .4c.4 0 .7-0.1 1-0.3c.2-0.1 .3-0.4 .3-0.6c0-0.3-0.1-0.5-0.4-0.7c-0.3-0.1-0.8-0.3-1.4-0.4c-0.7-0.2-1.2-0.4-1.6-0.5c-0.4-0.2-0.8-0.5-1.1-0.8c-0.3-0.4-0.5-0.9-0.5-1.5c0-0.4 .2-0.9 .5-1.3c.2-0.4 .7-0.7 1.2-1c.5-0.2 1.1-0.3 1.8-0.3c1.1 0 1.9 .3 2.6 .8c.6 .5 .9 1.2 1 2.1h-2.1c-0.1-0.3-0.2-0.6-0.5-0.8c-0.2-0.2-0.6-0.3-1-0.3c-0.4 0-0.7 0-1 .2c-0.2 .1-0.3 .3-0.3 .6c0 .3 .2 .5 .5 .7c.3 .2 .7 .3 1.4 .5c.6 .1 1.1 .3 1.5 .5c.5 .1 .8 .4 1.1 .8c.3 .3 .5 .8 .5 1.4c0 .5-0.1 .9-0.4 1.3c-0.3 .5-0.7 .8-1.2 1c-0.6 .2-1.2 .3-1.9 .3Zm7.6-7.7c.3-0.4 .7-0.7 1.2-1c.5-0.3 1-0.4 1.7-0.4c.8 0 1.4 .2 2.1 .6c.6 .3 1.1 .9 1.4 1.5c.4 .7 .5 1.5 .5 2.4c0 .9-0.1 1.7-0.5 2.4c-0.3 .7-0.8 1.3-1.4 1.7c-0.7 .4-1.3 .5-2.1 .5c-0.7 0-1.2-0.1-1.7-0.4c-0.5-0.2-0.9-0.6-1.2-1v5.5h-2.3v-13.1h2.3Zm4.7 3.1c0-0.5-0.1-1-0.4-1.3c-0.2-0.4-0.5-0.7-0.8-0.9c-0.4-0.2-0.8-0.3-1.2-0.3c-0.4 0-0.8 .1-1.1 .3c-0.4 .2-0.7 .5-0.9 .9c-0.2 .4-0.3 .8-0.3 1.4c0 .5 .1 1 .3 1.4c.2 .4 .5 .7 .9 .9c.3 .2 .7 .3 1.1 .3c.4 0 .8-0.1 1.2-0.3c.3-0.3 .6-0.6 .8-1c.3-0.4 .4-0.8 .4-1.4Zm12.1-0.1c0 .3 0 .6 0 .8h-6.5c0 .7 .2 1.2 .6 1.5c.4 .4 .9 .6 1.5 .6c.8 0 1.4-0.4 1.8-1.1h2.4c-0.3 .9-0.8 1.6-1.5 2.1c-0.7 .6-1.6 .8-2.7 .8c-0.8 0-1.6-0.1-2.2-0.5c-0.7-0.4-1.3-0.9-1.6-1.6c-0.4-0.7-0.6-1.5-0.6-2.4c0-0.9 .2-1.8 .6-2.4c.3-0.7 .9-1.3 1.5-1.6c.7-0.4 1.5-0.6 2.3-0.6c.9 0 1.6 .2 2.3 .5c.7 .4 1.2 .9 1.6 1.6c.3 .6 .5 1.4 .5 2.3Zm-2.3-0.7c0-0.5-0.2-1-0.6-1.3c-0.4-0.4-0.9-0.6-1.5-0.6c-0.6 0-1 .2-1.4 .5c-0.4 .4-0.6 .8-0.7 1.4Zm12.2 .7c0 .3 0 .6-0.1 .8h-6.5c.1 .7 .3 1.2 .7 1.5c.4 .4 .9 .6 1.5 .6c.8 0 1.4-0.4 1.8-1.1h2.4c-0.3 .9-0.8 1.6-1.5 2.1c-0.7 .6-1.6 .8-2.7 .8c-0.8 0-1.6-0.1-2.3-0.5c-0.7-0.4-1.2-0.9-1.6-1.6c-0.3-0.7-0.5-1.5-0.5-2.4c0-0.9 .2-1.8 .5-2.4c.4-0.7 .9-1.3 1.6-1.6c.7-0.4 1.4-0.6 2.3-0.6c.9 0 1.6 .2 2.3 .5c.7 .4 1.2 .9 1.5 1.6c.4 .6 .6 1.4 .6 2.3Zm-2.3-0.7c0-0.5-0.2-1-0.7-1.3c-0.4-0.4-0.9-0.6-1.4-0.6c-0.6 0-1.1 .2-1.4 .5c-0.4 .4-0.7 .8-0.7 1.4Zm3.3 .8c0-0.9 .2-1.7 .6-2.3c.3-0.7 .8-1.3 1.4-1.6c.7-0.4 1.4-0.6 2.1-0.6c.6 0 1.1 .1 1.7 .4c.5 .2 .9 .6 1.2 1v-4.2h2.3v11.8h-2.3v-1.3c-0.3 .4-0.7 .8-1.2 1c-0.5 .3-1 .4-1.7 .4c-0.7 0-1.4-0.1-2.1-0.5c-0.6-0.4-1.1-1-1.4-1.7c-0.4-0.7-0.6-1.5-0.6-2.4Zm7 .1c0-0.6-0.1-1-0.3-1.4c-0.2-0.4-0.5-0.7-0.9-0.9c-0.3-0.2-0.7-0.3-1.1-0.3c-0.4 0-0.8 .1-1.2 .3c-0.3 .2-0.6 .5-0.8 .9c-0.3 .3-0.4 .8-0.4 1.3c0 .6 .1 1 .4 1.4c.2 .4 .5 .7 .8 1c.4 .2 .8 .3 1.2 .3c.4 0 .8-0.1 1.1-0.3c.4-0.2 .7-0.5 .9-0.9c.2-0.4 .3-0.9 .3-1.4Z" mask="url(#mka-11)" transform="translate(17.1,21.6)"></path>
</g>
</g>
<g mask="url(#mka-14)" transform="translate(109.2,-14.9) translate(-109.2,-16.4)">
<g id="globey-task card-8" transform="translate(109.19999694824219,16.399999618530273)  translate(-109.2,0) translate(0,-16.4)">
<g id="globey-speech bubble-8" opacity="0" transform="translate(109.2,16.4) translate(-109.2,-16.4)" style="opacity: 1;">
<path d="M-2 0c0 0-4 11.2-4 11.2c0 0 11-4 11-4c0 0-7-7.2-7-7.2Z" fill="#4bbcfd" transform="translate(6,21.6)"></path>
<rect width="142.3" height="32" fill="#4bbcfd" rx="17" transform="translate(101.7,16.4) translate(-101.5,-16.4)"></rect>
</g>
<path fill="#fff" d="M8-11.2v1.8h-4.7v2.9h3.6v1.8h-3.6v4.7h-2.2v-11.2Zm2.7 1.3c-0.4 0-0.7-0.1-1-0.4c-0.2-0.2-0.4-0.6-0.4-0.9c0-0.4 .2-0.7 .4-1c.3-0.2 .6-0.3 1-0.3c.4 0 .7 .1 1 .3c.3 .3 .4 .6 .4 1c0 .3-0.1 .7-0.4 .9c-0.3 .3-0.6 .4-1 .4Zm1.1 1v8.9h-2.2v-8.9Zm7.1 8.9l-1.8-2.8l-1.6 2.8h-2.4l2.9-4.4l-2.9-4.5h2.5l1.8 2.8l1.6-2.8h2.4l-2.9 4.5l3 4.4Zm17.1 0h-2.2l-5.1-7.7v7.7h-2.2v-11.2h2.2l5.1 7.7v-7.7h2.2Zm9.1-2.1h-4.4l-0.8 2.1h-2.3l4-11.2h2.6l4 11.2h-2.4Zm-0.6-1.8l-1.6-4.7l-1.6 4.7Zm13.4-3.8c0 .6-0.2 1.1-0.5 1.7c-0.2 .5-0.7 .9-1.3 1.2c-0.6 .4-1.4 .5-2.3 .5h-1.8v4.3h-2.3v-11.2h4.1c.9 0 1.6 .2 2.2 .5c.6 .3 1.1 .7 1.4 1.2c.3 .5 .5 1.1 .5 1.8Zm-4.2 1.6c.6 0 1.1-0.1 1.4-0.4c.3-0.3 .5-0.7 .5-1.2c0-1.1-0.7-1.6-1.9-1.6h-1.7v3.2Zm17.8 1.5c0 .3 0 .6-0.1 .8h-6.4c0 .7 .2 1.2 .6 1.5c.4 .4 .9 .6 1.5 .6c.8 0 1.4-0.4 1.8-1.1h2.4c-0.3 .9-0.8 1.6-1.5 2.1c-0.7 .6-1.6 .8-2.7 .8c-0.8 0-1.6-0.1-2.3-0.5c-0.6-0.4-1.2-0.9-1.5-1.6c-0.4-0.7-0.6-1.5-0.6-2.4c0-0.9 .2-1.8 .5-2.4c.4-0.7 .9-1.3 1.6-1.6c.7-0.4 1.5-0.6 2.3-0.6c.9 0 1.6 .2 2.3 .5c.7 .4 1.2 .9 1.5 1.6c.4 .6 .6 1.4 .6 2.3Zm-2.3-0.7c0-0.5-0.2-1-0.6-1.3c-0.4-0.4-0.9-0.6-1.5-0.6c-0.6 0-1.1 .2-1.4 .5c-0.4 .4-0.6 .8-0.7 1.4Zm6.2-2.2c.3-0.5 .6-0.8 1.1-1.1c.5-0.3 1-0.4 1.6-0.4v2.4h-0.6c-0.7 0-1.2 .1-1.6 .5c-0.3 .3-0.5 .9-0.5 1.7v4.4h-2.3v-8.9h2.3Zm6.4 0c.3-0.5 .7-0.8 1.2-1.1c.4-0.3 1-0.4 1.6-0.4v2.4h-0.6c-0.7 0-1.3 .1-1.6 .5c-0.4 .3-0.6 .9-0.6 1.7v4.4h-2.2v-8.9h2.2Zm8.2 7.6c-0.8 0-1.6-0.1-2.3-0.5c-0.7-0.4-1.2-0.9-1.6-1.6c-0.4-0.7-0.6-1.5-0.6-2.4c0-0.9 .2-1.7 .6-2.4c.4-0.7 1-1.3 1.7-1.6c.6-0.4 1.4-0.6 2.3-0.6c.8 0 1.6 .2 2.3 .6c.7 .3 1.2 .9 1.6 1.6c.4 .7 .6 1.5 .6 2.4c0 .9-0.2 1.7-0.6 2.4c-0.4 .7-0.9 1.2-1.6 1.6c-0.7 .4-1.5 .5-2.4 .5Zm0-1.9c.4 0 .8-0.1 1.2-0.3c.3-0.2 .6-0.5 .8-0.9c.2-0.4 .3-0.9 .3-1.4c0-0.9-0.2-1.5-0.6-2c-0.5-0.4-1-0.7-1.7-0.7c-0.6 0-1.1 .3-1.6 .7c-0.4 .5-0.6 1.1-0.6 2c0 .8 .2 1.5 .6 1.9c.4 .5 1 .7 1.6 .7Zm8.5-5.7c.3-0.5 .7-0.8 1.1-1.1c.5-0.3 1-0.4 1.6-0.4v2.4h-0.6c-0.7 0-1.2 .1-1.5 .5c-0.4 .3-0.6 .9-0.6 1.7v4.4h-2.2v-8.9h2.2Zm7.6 7.6c-0.7 0-1.3-0.1-1.9-0.3c-0.6-0.3-1-0.7-1.4-1.1c-0.3-0.5-0.5-1-0.5-1.5h2.2c.1 .3 .2 .6 .5 .8c.3 .3 .7 .4 1.1 .4c.4 0 .8-0.1 1-0.3c.3-0.1 .4-0.4 .4-0.6c0-0.3-0.2-0.5-0.5-0.7c-0.3-0.1-0.7-0.3-1.4-0.4c-0.6-0.2-1.2-0.4-1.6-0.5c-0.4-0.2-0.8-0.5-1.1-0.8c-0.3-0.4-0.4-0.9-0.4-1.5c0-0.4 .1-0.9 .4-1.3c.3-0.4 .7-0.7 1.2-1c.5-0.2 1.2-0.3 1.9-0.3c1 0 1.9 .3 2.5 .8c.6 .5 1 1.2 1 2.1h-2.1c0-0.3-0.2-0.6-0.4-0.8c-0.3-0.2-0.7-0.3-1.1-0.3c-0.4 0-0.7 0-0.9 .2c-0.2 .1-0.4 .3-0.4 .6c0 .3 .2 .5 .5 .7c.3 .2 .8 .3 1.4 .5c.6 .1 1.2 .3 1.6 .5c.4 .1 .7 .4 1.1 .8c.3 .3 .4 .8 .4 1.4c0 .5-0.1 .9-0.4 1.3c-0.3 .5-0.7 .8-1.2 1c-0.5 .2-1.2 .3-1.9 .3Z" mask="url(#mka-13)" transform="translate(17.1,21.6)"></path>
</g>
</g>
</g>
</g>
<g class="cls-12" transform="translate(280,282) scale(.3,.3) translate(-681.6,-340.6)" style="isolation: isolate;">
<g transform="translate(681.6,340.6) translate(-681.6,-340.6)">
<ellipse class="cls-8" rx="15.7" ry="75" fill="#193f1d" stroke-width="7px" stroke-linejoin="round" stroke="#000" transform="translate(251.5,982.6) rotate(-55.3) translate(1063.4,251.3)"></ellipse>
<ellipse class="cls-9" rx="14.3" ry="15" fill="#0c8040" stroke-width="7px" stroke-linejoin="round" stroke="#000" transform="translate(907.3,1300) rotate(-87.3) translate(1134.5,174.9)"></ellipse>
<path class="cls-6" d="M1128.3 176.2l-7.8-5.6c-32-22.7-77-17.1-100.6 12.3l-18.1 22.7l.4 .3c.1-0.5 .3-1 .6-1.4c5.3-7 37.1 7.1 71 31.5c34 24.5 57.3 50 52 57c-0.1 .1-0.2 .2-0.3 .3h.1l18-22.6c23.6-29.5 16.7-71.8-15.3-94.5Z" stroke-width="7px" stroke-linecap="round" stroke-linejoin="round" stroke="#000" fill="#49b649" transform="translate(1079.7,225) translate(-1079.7,-225)"></path>
<path class="cls-5" d="M1138 184.1c0 0 11.2 37.6-31.9 78.3" stroke-width="7px" stroke-linecap="round" stroke-linejoin="round" stroke="#000" fill="none" transform="translate(1122.7,223.2) translate(-1122.7,-223.2)"></path>
<path class="cls-9" d="M1003 211.5c10.6-8.3 52.1 15.2 92.7 52.4c11.1 10.1 21 20.3 29.3 29.8c5.1-11.4-18.5-45.4-56-79.8c-40.6-37.2-82.1-60.6-92.8-52.4c-7.7 6 3 27 25 52.3c.4-1 1-1.7 1.8-2.3Z" fill="#0c8040" stroke-width="7px" stroke-linecap="round" stroke-linejoin="round" stroke="#000" transform="translate(1049.7,226.8) translate(-1049.7,-226.8)"></path>
<path class="cls-2" d="M1003 211.5c10.6-8.3 52.1 15.2 92.7 52.4c11.1 10.1 21 20.3 29.3 29.8c5.1-11.4-18.5-45.4-56-79.8c-40.6-37.2-82.1-60.6-92.8-52.4c-7.7 6 3 27 25 52.3c.4-1 1-1.7 1.8-2.3Z" fill="url(#halftone-ken)" transform="translate(1049.7,226.8) translate(-1049.7,-226.8)" style="mix-blend-mode: overlay;"></path>
<path class="cls-11" d="M1219.7 525.5c-6.9 30.2-18.9 58-34.8 82.5h-430.9c-36.5-56.1-51-126.4-34.9-196.8c29.6-129.7 152.6-213.9 281.9-197.6c.1 0 .2 0 .3 0c.1 0 .2 0 .2 0c8.3 1.1 16.6 2.5 24.9 4.4c.1 0 .1 0 .1 .1c4.4 .9 8.6 2 12.8 3.2c0 0 .1 .1 .1 .1c4.1 1.1 8.2 2.4 12.3 3.8c4.7 1.5 9.4 3.3 14 5.1c0 0 0 .1 0 .1c1.6 .6 3.1 1.2 4.6 1.9c2.6 1 5.1 2.2 7.6 3.3c1.3 .6 2.6 1.3 3.9 1.9c7.1 3.5 14 7.2 20.7 11.3c3.5 2.1 7 4.3 10.4 6.6c9.4 6.3 18.2 13.2 26.5 20.6c68 60.2 101.9 154.7 80.3 249.5Z" fill="#fff" stroke-width="7px" stroke-linecap="round" stroke-linejoin="round" stroke="#000" transform="translate(969.4,409.8) translate(-969.4,-409.8)"></path>
<path class="cls-5" d="M1184.9 608c15.9-24.5 27.9-52.3 34.8-82.5c21.6-94.8-12.2-189.3-80.3-249.5c-8.3-7.4-17.1-14.3-26.4-20.6c-3.5-2.3-6.9-4.5-10.5-6.7c-6.7-4-13.6-7.8-20.6-11.2c-5.3-2.6-10.7-5-16.2-7.2c-4.6-1.8-9.3-3.6-14-5.2c-4.1-1.3-8.2-2.6-12.4-3.8c-4.2-1.2-8.4-2.3-12.7-3.3" stroke-width="7px" stroke-linecap="round" stroke-linejoin="round" stroke="#000" fill="none" transform="translate(1126.4,413) translate(-1126.4,-413)"></path>
<path class="cls-5" d="M858 608c-0.1-1.6-0.1-3.4-0.1-5.1c-0.3-15.7 .6-32.5 2.9-49.8" stroke-width="7px" stroke-linecap="round" stroke-linejoin="round" stroke="#000" fill="none" transform="translate(859.3,580.6) translate(-859.3,-580.6)"></path>
<path class="cls-5" d="M1026.5 218c-20.4 5.9-39.2 23-55.3 48.7" stroke-width="7px" stroke-linecap="round" stroke-linejoin="round" stroke="#000" fill="none" transform="translate(998.9,242.3) translate(-998.9,-242.3)"></path>
<path class="cls-5" d="M1026 217.9c-8.2-1.8-16.3-3.3-24.5-4.3c0-0.1-0.1-0.1-0.2-0.1c-0.1 0-0.2 0-0.3 0h-0.1c-129.4-16.5-252.7 67.7-282.4 197.6c-16.1 70.4-1.5 140.8 35 196.9" stroke-width="7px" stroke-linecap="round" stroke-linejoin="round" stroke="#000" fill="none" transform="translate(869,409.7) translate(-869,-409.7)"></path>
<path class="cls-5" d="M724.1 541.5c37.2 24 82.7 45.2 133.8 61.4c5.5 1.8 11.1 3.5 16.8 5.1" stroke-width="7px" stroke-linecap="round" stroke-linejoin="round" stroke="#000" fill="none" transform="translate(799.4,574.8) translate(-799.4,-574.8)"></path>
<path class="cls-5" d="M1062.8 410.8c62.6 33.8 115.3 74.9 154.4 118.2" stroke-width="7px" stroke-linecap="round" stroke-linejoin="round" stroke="#000" fill="none" transform="translate(1140,469.9) translate(-1140,-469.9)"></path>
<path class="cls-5" d="M752.9 334.6c17.1-1.3 35-1.5 53.7-0.5" stroke-width="7px" stroke-linecap="round" stroke-linejoin="round" stroke="#000" fill="none" transform="translate(779.8,334.1) translate(-779.8,-334.1)"></path>
<ellipse class="cls-11" rx="56.9" ry="44.5" fill="#fff" stroke-width="7px" stroke-linejoin="round" stroke="#000" transform="translate(120.7,845.6) rotate(-53.4) translate(901.2,302.7)"></ellipse>
<path class="cls-11" d="M1056 314.8c3 14 .3 30.7-8.8 45.8c-16.2 26.9-46.3 38.5-67.4 25.9c-21-12.7-25-44.8-8.8-71.7c9.7-16.2 24.5-26.9 39.4-30.1c0 0 18.1 18.6 44.3 25.9l1.3 4.2Z" fill="#fff" stroke-width="7px" stroke-linecap="round" stroke-linejoin="round" stroke="#000" transform="translate(1009.1,338.2) translate(-1009.1,-338.2)"></path>
<path class="cls-5" d="M1068.3 608c18.2-29.9 33.5-64.8 44.5-103.1c5.5-18.9 9.5-37.6 12.3-55.9c9-57.7 5.2-111.5-9.2-153.5c-2.4-7.1-5.2-13.9-8.3-20.3c-2.8-6-6-11.7-9.4-17c-1.5-2.4-3.1-4.7-4.7-6.9c-3.6-5-7.5-9.6-11.6-13.8c-0.8-0.7-1.5-1.5-2.3-2.2" stroke-width="7px" stroke-linecap="round" stroke-linejoin="round" stroke="#000" fill="none" transform="translate(1099.1,421.7) translate(-1099.1,-421.7)"></path>
<path class="cls-11" d="M936 355.3c-9 7.7-35.2 25.1-49.6 67.9c0-0.1 18.6-9.9 41.1-4.9" fill="#fff" stroke-width="7px" stroke-linecap="round" stroke-linejoin="round" stroke="#000" transform="translate(911.2,389.2) translate(-911.2,-389.2)"></path>
<path class="cls-11" d="M1359.7 609.2h-1356.2" fill="#fff" stroke-width="7px" stroke-linecap="round" stroke-linejoin="round" stroke="#000" transform="translate(681.6,609.2) translate(-681.6,-609.2)"></path>
<rect class="cls-7" width="786.8" height="481.1" rx="23.7" ry="23.7" fill="#ddd" stroke-width="7px" stroke-linejoin="round" stroke="#000" transform="translate(428.8,244) translate(-393.4,-240.5)"></rect>
<path class="cls-10" d="M513.7 676.7h-169.9c-16 0-28.4-20.8-26.6-44.7l22.3-301.7c1.6-20.4 13-35.8 26.7-35.8h125.2c13.6 0 25.1 15.4 26.6 35.8l22.3 301.7c1.8 23.9-10.6 44.7-26.6 44.7Z" fill="#a8a7a5" stroke-width="7px" stroke-linecap="round" stroke-linejoin="round" stroke="#000" transform="translate(428.8,485.6) translate(-428.8,-485.6)"></path>
<path class="cls-9" d="M905.6 420.6c0 0 1.5 9 7.8 16" fill="#0c8040" stroke-width="7px" stroke-linecap="round" stroke-linejoin="round" stroke="#000" transform="translate(909.5,428.6) translate(-909.5,-428.6)"></path>
<path class="cls-11" d="M701.6 606.9c-0.1-32.6-26.7-59-59.4-58.8c-32.6 .2-59 26.8-58.8 59.4l118.2-0.6Z" fill="#fff" stroke-width="7px" stroke-linecap="round" stroke-linejoin="round" stroke="#000" transform="translate(642.5,577.8) translate(-642.5,-577.8)"></path>
<ellipse id="globey-hand - left" class="cls-11" rx="59.8" ry="59.8" fill="#fff" stroke-width="7px" stroke-linejoin="round" stroke="#000" transform="translate(1072.199951171875,617.9000244140625) "></ellipse>
<g id="globey-eyes" transform="translate(951.7999877929688,310.70001220703125)  translate(-80.8,0) translate(0,-49.8)">
<g transform="translate(122.7,59.4) translate(-27.7,-31.9)">
<ellipse class="cls-3" rx="32.7" ry="25.6" transform="translate(-781.3,730.7) rotate(-58.2) translate(1018.4,333.1)"></ellipse>
<ellipse class="cls-4" rx="14.6" ry="10.3" fill="#fff" transform="translate(-765.2,716.8) rotate(-58.7) translate(1004.1,313.8)"></ellipse>
</g>
<g transform="translate(16.6,26.6) translate(-28.4,-32.8)">
<ellipse class="cls-3" rx="32.7" ry="25.6" transform="translate(-752.8,583.9) rotate(-52.5) translate(912.8,299.6)"></ellipse>
<ellipse class="cls-4" rx="14.6" ry="10.3" fill="#fff" transform="translate(-733.7,575) rotate(-53.1) translate(903.7,277.5)"></ellipse>
</g>
</g>
</g>
</g>
<rect width="366.6" height="59.7" fill="url(#globey-Gradient-0)" rx="17" transform="translate(173.3,13.1) translate(-183.3,-28.5)"></rect>
<rect width="366.6" height="10.2" fill="url(#globey-Gradient-1)" transform="translate(173.3,197.1) translate(-183.3,-28.5)"></rect>
<script>
		/*
 KeyshapeJS v1.3.0 (c) 2018-2023 Pixofield Ltd | pixofield.com/keyshapejs/mit-license */
window.KeyshapeJS=function(){function r(a){return"undefined"!==typeof a}function u(a,b){return a&amp;&amp;0===a.indexOf(b)}function X(a){var b={},c;for(c in a)b[c]=a[c];return b}function F(a){if(!isFinite(a))throw Error("Non-finite value");}function Y(a){if(14&gt;=a)return 16;var b=Z[a];b||(b=r(ka[a])?0|(a.toLowerCase().indexOf("color")===a.length-5?48:0):1);return b}function N(a){return 0&lt;=a?Math.pow(a,1/3):-Math.pow(-a,1/3)}function la(a,b,c,d){if(0===a)return 0===b?b=-d/c:(a=Math.sqrt(c*c-4*b*d),d=(-c+a)/
(2*b),0&lt;=d&amp;&amp;1&gt;=d?b=d:(d=(-c-a)/(2*b),b=0&lt;=d&amp;&amp;1&gt;=d?d:0)),b;var e=c/a-b*b/(a*a)/3;c=b*b*b/(a*a*a)/13.5-b*c/(a*a)/3+d/a;var f=c*c/4+e*e*e/27;b=-b/(3*a);if(0&gt;=f){if(0===e&amp;&amp;0===c)return-N(d/a);a=Math.sqrt(c*c/4-f);d=Math.acos(-c/2/a);c=Math.cos(d/3);d=Math.sqrt(3)*Math.sin(d/3);a=N(a);e=2*a*c+b;if(0&lt;=e&amp;&amp;1&gt;=e)return e;e=-a*(c+d)+b;if(0&lt;=e&amp;&amp;1&gt;=e)return e;e=a*(d-c)+b;if(0&lt;=e&amp;&amp;1&gt;=e)return e}else{a=N(-c/2+Math.sqrt(f));c=N(-c/2-Math.sqrt(f));d=a+c+b;if(0&lt;=d&amp;&amp;1&gt;=d)return d;d=-(a+c)/2+b;if(0&lt;=d&amp;&amp;1&gt;=d)return d}return 0}
function ma(a,b){if(48===a&amp;&amp;"number"===typeof b)return"rgba("+(b&gt;&gt;&gt;24)+","+(b&gt;&gt;&gt;16&amp;255)+","+(b&gt;&gt;&gt;8&amp;255)+","+(b&amp;255)/255+")";if(64===a)return b=b.map(function(f){return f+"px"}),b.join(",");if(96===a){for(var c="",d=b.length,e=0;e&lt;d;e+=2)c+=b[e],c+=b[e+1].join(",");return c}if(80===a){if(0===b[0])return"none";c="";d=b.length;for(e=0;e&lt;d;)c+=aa[b[e]],1===b[e]?c+="("+b[e+1]+") ":5===b[e]?(c+="("+b[e+1]+"px "+b[e+2]+"px "+b[e+3]+"px rgba("+(b[e+4]&gt;&gt;&gt;24)+","+(b[e+4]&gt;&gt;16&amp;255)+","+(b[e+4]&gt;&gt;8&amp;255)+","+(b[e+
4]&amp;255)/255+")) ",e+=3):c=2===b[e]?c+("("+b[e+1]+"px) "):7===b[e]?c+("("+b[e+1]+"deg) "):c+("("+(0&gt;b[e+1]?0:b[e+1])+") "),e+=2;return c}return 32===a?b+"px":b}function B(a){return 0&gt;=a?0:255&lt;=a?255:a}function na(a,b,c,d){if(16===a||32===a)return(c-b)*d+b;if(0===a)return.5&gt;d?b:c;if(112===a)return 0&gt;=d?b:1&lt;=d?c:"visible";if(48===a){if("number"===typeof b&amp;&amp;"number"===typeof c){a=1-d;var e=a*(b&gt;&gt;&gt;16&amp;255)+d*(c&gt;&gt;&gt;16&amp;255),f=a*(b&gt;&gt;&gt;8&amp;255)+d*(c&gt;&gt;&gt;8&amp;255),m=a*(b&amp;255)+d*(c&amp;255);return B(a*(b&gt;&gt;&gt;24)+d*(c&gt;&gt;&gt;24))&lt;&lt;
24|B(e)&lt;&lt;16|B(f)&lt;&lt;8|B(m)}return.5&gt;d?b:c}if(64===a){0===b.length&amp;&amp;(b=[0]);0===c.length&amp;&amp;(c=[0]);a=b.length;b.length!==c.length&amp;&amp;(a=b.length*c.length);e=[];for(f=0;f&lt;a;++f)m=b[f%b.length],m=(c[f%c.length]-m)*d+m,0&gt;m&amp;&amp;(m=0),e.push(m);return e}if(96===a){if(b.length!==c.length)return.5&gt;d?b:c;a=b.length;e=[];for(f=0;f&lt;a;f+=2){if(b[f]!==c[f])return.5&gt;d?b:c;e[f]=b[f];e[f+1]=[];for(m=0;m&lt;b[f+1].length;++m)e[f+1].push((c[f+1][m]-b[f+1][m])*d+b[f+1][m])}return e}if(80===a){a=b.length;if(a!==c.length)return.5&gt;
d?b:c;e=[];for(f=0;f&lt;a;){if(b[f]!==c[f]||1===b[f])return.5&gt;d?b:c;e[f]=b[f];e[f+1]=(c[f+1]-b[f+1])*d+b[f+1];if(5===b[f]){e[f+2]=(c[f+2]-b[f+2])*d+b[f+2];e[f+3]=(c[f+3]-b[f+3])*d+b[f+3];m=1-d;var k=b[f+4],h=c[f+4],g=m*(k&gt;&gt;&gt;24)+d*(h&gt;&gt;&gt;24),n=m*(k&gt;&gt;8&amp;255)+d*(h&gt;&gt;8&amp;255),p=m*(k&amp;255)+d*(h&amp;255);e[f+4]=(B(m*(k&gt;&gt;16&amp;255)+d*(h&gt;&gt;16&amp;255))&lt;&lt;16|B(n)&lt;&lt;8|B(p))+16777216*(B(g)|0);f+=3}f+=2}return e}return 0}function ba(a,b){a:{var c=a+b[2];for(var d=b[4].length,e=0;e&lt;d;++e)if(c&lt;b[4][e]){c=e;break a}c=d-1}d=b[2];e=b[4][c-
1]-d;d=(a-e)/(b[4][c]-d-e);if(b[6]&amp;&amp;b[6].length&gt;c-1)if(e=b[6][c-1],1===e[0])if(0&gt;=d)d=0;else if(1&lt;=d)d=1;else{var f=e[1],m=e[3];d=la(3*f-3*m+1,-6*f+3*m,3*f,-d);d=3*d*(1-d)*(1-d)*e[2]+3*d*d*(1-d)*e[4]+d*d*d}else 2===e[0]?(e=e[1],d=Math.ceil(d*e)/e):3===e[0]&amp;&amp;(e=e[1],d=Math.floor(d*e)/e);return na(b[1]&amp;240,b[5][c-1],b[5][c],d)}function O(){C||(z=(new Date).getTime()+ca)}function U(a){if(a||!J){for(var b=!1,c=0;c&lt;D.length;++c)D[c].O(a)&amp;&amp;(b=!0);if(a)for(;0&lt;K.length;)if(a=K.shift(),c=a[0],1===a[1])c.onfinish&amp;&amp;
(c.onfinish(),b=!0),c.N();else if(2===a[1]&amp;&amp;c.onloop)c.onloop();return b}}function da(){O();U(!0)&amp;&amp;!C?(J=!0,P(da)):J=!1}function Q(){J||(J=!0,P(da))}function ea(a,b){var c=[];a.split(b).forEach(function(d){c.push(parseFloat(d))});return c}function G(a){-1===a.indexOf(",")&amp;&amp;(a=a.replace(" ",","));return ea(a,",")}function fa(a){a._ks||(a._ks={});if(!a._ks.transform){for(var b=a._ks.transform=[],c=0;14&gt;=c;++c)b[c]=0;b[10]=1;b[11]=1;if(a=a.getAttribute("transform")){a=a.trim().split(") ");for(c=a.length-
2;0&lt;=c;--c)if(u(a[c],"translate(")){for(var d=0;d&lt;c;d++)a.shift();break}c=a.shift();u(c,"translate(")&amp;&amp;(c=G(c.substring(10)),b[1]=c[0],b[2]=r(c[1])?c[1]:0,c=a.shift());u(c,"rotate(")&amp;&amp;(c=G(c.substring(7)),b[6]=c[0],c=a.shift());u(c,"skewX(")&amp;&amp;(c=G(c.substring(6)),b[7]=c[0],c=a.shift());u(c,"skewY(")&amp;&amp;(c=G(c.substring(6)),b[8]=c[0],c=a.shift());u(c,"scale(")&amp;&amp;(c=G(c.substring(6)),b[10]=c[0],b[11]=r(c[1])?c[1]:c[0],c=a.shift());u(c,"translate(")&amp;&amp;(c=G(c.substring(10)),b[13]=c[0],b[14]=r(c[1])?c[1]:
0)}}}function ha(a){this.m=a;this.I=[];this.G=[];this.D=0;this.B=this.g=this.i=null;this.o=this.j=this.l=0;this.h=1;this.s=this.K=this.A=!1}function H(a,b,c){b=a[b];void 0===b&amp;&amp;(b=a[c]);return b}function oa(a){return Array.isArray(a)?a:u(a,"cubic-bezier(")?(a=a.substring(13,a.length-1).split(","),[1,parseFloat(a[0]),parseFloat(a[1]),parseFloat(a[2]),parseFloat(a[3])]):u(a,"steps(")?(a=a.substring(6,a.length-1).split(","),[a[1]&amp;&amp;"start"===a[1].trim()?2:3,parseFloat(a[0])]):[0]}function pa(a){a=a.trim();
return u(a,"#")?(parseInt(a.substring(1),16)&lt;&lt;8)+255:u(a,"rgba(")?(a=a.substring(5,a.length-1),a=a.split(","),(parseInt(a[0],10)&lt;&lt;24)+(parseInt(a[1],10)&lt;&lt;16)+(parseInt(a[2],10)&lt;&lt;8)+255*parseFloat(a[3])&lt;&lt;0):a}function ia(a){!1===a.s&amp;&amp;(D.push(a),a.s=!0,!1!==a.m.autoplay&amp;&amp;a.play());return this}function V(a){if(!0===a.s){a._cancel();var b=D.indexOf(a);-1&lt;b&amp;&amp;D.splice(b,1);b=K.indexOf(a);-1&lt;b&amp;&amp;K.splice(b,1);a.s=!1}return this}var W=Error("Not in timeline list"),ja="mpath posX posY    rotate skewX skewY  scaleX scaleY  anchorX anchorY".split(" "),
qa=" translate translate    rotate skewX skewY  scale scale  translate translate".split(" "),aa="none url blur brightness contrast drop-shadow grayscale hue-rotate invert opacity saturate sepia".split(" "),P=window.requestAnimationFrame||window.webkitRequestAnimationFrame||window.mozRequestAnimationFrame||window.oRequestAnimationFrame||window.msRequestAnimationFrame||null;P||(P=function(a){window.setTimeout(a,16)});var ra=/apple/i.test(navigator.vendor),Z={d:97,fill:48,fillOpacity:16,filter:80,height:33,
opacity:16,offsetDistance:33,rx:33,ry:33,stroke:48,strokeDasharray:64,strokeDashoffset:32,strokeOpacity:16,strokeWidth:32,transform:1,visibility:113,width:33},ka=window.getComputedStyle(document.documentElement),J=!1,z=(new Date).getTime(),C,ca=0,D=[],K=[];ha.prototype={J:function(a){var b=0;if(null!==this.i){var c=this.u();0&lt;this.h&amp;&amp;null!==c&amp;&amp;c&gt;=this.j?this.o?(this.i=z-this.l/this.h,this.o--,b=2):(b=1,a?this.g=c:this.g=this.B?Math.max(this.B,this.j):this.j):0&gt;this.h&amp;&amp;null!==c&amp;&amp;c&lt;=this.l?this.o&amp;&amp;
Infinity!==this.j?(this.i=z-this.j/this.h,this.o--,b=2):(this.o=0,b=1,a?this.g=c:this.g=this.B?Math.min(this.B,this.l):this.l):null!==c&amp;&amp;0!==this.h&amp;&amp;(a&amp;&amp;null!==this.g&amp;&amp;(this.i=z-this.g/this.h),this.g=null)}this.B=this.u();return b},O:function(a){a&amp;&amp;(this.A&amp;&amp;(this.A=!1,null===this.i&amp;&amp;(0!==this.h&amp;&amp;null!==this.g?(this.i=z-this.g/this.h,this.g=null):this.i=z)),null===this.g&amp;&amp;null!==this.i&amp;&amp;(a=this.J(!1),0!==a&amp;&amp;K.push([this,a])));a=this.u();if(null===a)return!1;for(var b=this.I,c=this.G,d=0;d&lt;b.length;++d){for(var e=
b[d],f=!1,m=0;m&lt;c[d].length;++m){var k=c[d][m],h=k[0];if(null!==h){var g=k[2];var n=k[4].length,p=k[4][n-1]-g;g=0===p?k[5][n-1]:a&lt;g?!k[9]||k[9][0]&amp;1?k[5][0]:k[9][1]:a&gt;=g+k[3]?!k[9]||k[9][0]&amp;2?0===k[3]%p?k[5][n-1]:ba(k[3]%p,k):k[9][1]:ba((a-g)%p,k);0===h?(e._ks.mpath=k[8],e._ks.transform[h]=g,f=!0):14&gt;=h?(e._ks.transform[h]=g,f=!0):(g=ma(k[1]&amp;240,g),k[1]&amp;1?e.setAttribute(h,g):e.style[h]=g)}}if(f){f=e;fa(f);m=f._ks.transform;k="";if(h=f._ks.mpath)n=m[0],0&gt;n&amp;&amp;(n=0),100&lt;n&amp;&amp;(n=100),n=n*h[2]/100,g=h[1].getPointAtLength(n),
k="translate("+g.x+","+g.y+") ",h[0]&amp;&amp;(.5&gt;n?(n=g,g=h[1].getPointAtLength(.5)):n=h[1].getPointAtLength(n-.5),k+="rotate("+180*Math.atan2(g.y-n.y,g.x-n.x)/Math.PI+") ");for(h=1;h&lt;m.length;++h)g=m[h],g!==(10===h||11===h?1:0)&amp;&amp;(k+=" "+qa[h]+"(",k=2&gt;=h?k+(1===h?g+",0":"0,"+g):13&lt;=h?k+(13===h?g+",0":"0,"+g):10&lt;=h?k+(10===h?g+",1":"1,"+g):k+g,k+=")");f.setAttribute("transform",k)}ra&amp;&amp;e.setAttribute("opacity",e.getAttribute("opacity"))}return"running"===this.v()},N:function(){!1!==this.m.autoremove&amp;&amp;"finished"===
this.v()&amp;&amp;V(this)},H:function(){if(!this.K){this.K=!0;for(var a=this.I,b=this.G,c=0;c&lt;a.length;++c)for(var d=a[c],e=0;e&lt;b[c].length;++e)14&gt;=b[c][e][0]&amp;&amp;fa(d)}},C:function(a){if("number"===typeof a)return[a,0];if(!r(this.m.markers)||!r(this.m.markers[a]))throw Error("Invalid marker: "+a);a=this.m.markers[a];return r(a.time)?[+a.time,+(a.dur||0)]:[+a,0]},play:function(a){r(a)&amp;&amp;null!==a&amp;&amp;(a=this.C(a)[0],F(a),0&gt;this.h&amp;&amp;a&lt;this.l&amp;&amp;(a=this.l),0&lt;this.h&amp;&amp;a&gt;this.j&amp;&amp;(a=this.j),this.F(a,!0));if(!this.s)throw W;
a=this.u();if(0&lt;this.h&amp;&amp;(null===a||a&gt;=this.j||a&lt;this.l))this.g=this.l;else if(0&gt;this.h&amp;&amp;(null===a||a&lt;=this.l||a&gt;this.j)){if(Infinity===this.j)throw Error("Cannot seek to Infinity");this.g=this.j}else 0===this.h&amp;&amp;null===a&amp;&amp;(this.g=this.l);if(null===this.g)return this;this.i=null;this.A=!0;this.H();Q();return this},pause:function(a){if(!this.s)throw W;r(a)&amp;&amp;(a=this.C(a)[0],F(a));if("paused"!==this.v()){O();var b=this.u();if(null===b)if(0&lt;=this.h)this.g=this.l;else{if(Infinity===this.j)throw Error("Cannot seek to Infinity");
this.g=this.j}null!==this.i&amp;&amp;null===this.g&amp;&amp;(this.g=b);this.i=null;this.A=!1;this.J(!1);this.H();Q()}r(a)&amp;&amp;this.F(a,!0);return this},range:function(a,b){if(0===arguments.length)return{"in":this.l,out:this.j};var c=this.C(a)[0],d=this.D;r(b)&amp;&amp;(d=this.C(b)[0]);F(c);if(0&gt;c||0&gt;d||c&gt;=d||isNaN(d))throw Error("Invalid range");var e=this.v();this.l=c;this.j=d;"finished"===e&amp;&amp;"running"===this.v()&amp;&amp;this.play();return this},loop:function(a){if(!r(a))return{count:this.o};this.o=!0===a?Infinity:Math.floor(a);
if(0&gt;this.o||isNaN(this.o))this.o=0;return this},u:function(){return null!==this.g?this.g:null===this.i?null:(z-this.i)*this.h},F:function(a,b){b&amp;&amp;O();null!==a&amp;&amp;(this.H(),null!==this.g||null===this.i||0===this.h?(this.g=a,U(!1)):this.i=z-a/this.h,this.s||(this.i=null),this.B=null,this.J(!0),Q())},L:function(){return this.u()},time:function(a){if(r(a)){if(!this.s)throw W;a=this.C(a)[0];F(a);this.F(a,!0);return this}return this.L()},v:function(){var a=this.u();return this.A?"running":null===a?"idle":
null===this.i?"paused":0&lt;this.h&amp;&amp;a&gt;=this.j||0&gt;this.h&amp;&amp;a&lt;=this.l?"finished":"running"},state:function(){return this.v()},duration:function(){return this.D},M:function(a){F(a);O();var b=this.u();this.h=a;null!==b&amp;&amp;this.F(b,!1)},rate:function(a){return r(a)?(this.M(a),this):this.h},markers:function(a){return r(a)?(this.m.markers=X(a),this):r(this.m.markers)?this.m.markers:{}},marker:function(a){return r(this.m.markers)?this.m.markers[a]:void 0},_cancel:function(){if(!this.s||"idle"===this.v())return this;
this.i=this.g=null;this.A=!1;return this}};return{version:"1.3.0",animate:function(){var a={};1===arguments.length%2&amp;&amp;(a=X(arguments[arguments.length-1]));a=new ha(a);for(var b=arguments,c=0,d=0;d&lt;b.length-1;d+=2){var e=b[d];var f=e instanceof Element?e:document.getElementById(e.substring(1));if(!f)throw Error("Invalid target: "+e);e=f;f=b[d+1];e._ks||(e._ks={});for(var m=[],k=0;k&lt;f.length;++k){var h=f[k],g=H(h,"p","property");if("string"!==typeof g||-1!==g.indexOf("-")||""===g||!(0&lt;Z[g]||0&lt;=ja.indexOf(g)))throw Error("Invalid property: "+
g);var n=ja.indexOf(g);""!==g&amp;&amp;0&lt;=n&amp;&amp;(g=n);n=Y(g);var p=H(h,"t","times");if(!p||2&gt;p.length)throw Error("Not enough times");p=p.slice();if(!isFinite(p[0])||0&gt;p[0])throw Error("Invalid time: "+p[0]);for(var w=1;w&lt;p.length;++w)if(!isFinite(p[w])||0&gt;p[w]||p[w]&lt;p[w-1])throw Error("Invalid time: "+p[w]);w=p[0];var R=p[p.length-1]-w,S=h.iterations||0;1&gt;S&amp;&amp;(S=1);R*=S;c&lt;R+w&amp;&amp;(c=R+w);var I=H(h,"v","values");if(!I||I.length!==p.length)throw Error("Values do not match times");I=I.slice();for(var x=g,l=I,L=Y(x)&amp;
240,q=0;q&lt;l.length;++q)if(96===L){for(var E=l[q].substring(6,l[q].length-2).match(/[A-DF-Za-df-z][-+0-9eE., ]*/ig),M=[],t=0;t&lt;E.length;++t){M.push(E[t][0]);for(var v=1&lt;E[t].trim().length?E[t].substring(1).split(","):[],A=0;A&lt;v.length;++A)v[A]=parseFloat(v[A]);M.push(v)}l[q]=M}else if(48===L)u(l[q],"#")?(E=9===l[q].length,l[q]=parseInt(l[q].substring(1),16),E||(l[q]=256*l[q]|255)):u(l[q],"url(")||"none"===l[q]||(console.warn("unsupported color: "+l[q]),l[q]=0);else if(80===L){E=l;M=q;t=l[q];if("none"===
t)t=[0];else{v=[];for(var y=t.indexOf("(");0&lt;y;)if(A=aa.indexOf(t.substring(0,y)),0&lt;=A){v.push(A);var T=t.indexOf(") ");0&gt;T&amp;&amp;(T=t.length-1);y=t.substring(y+1,T).split(" ");5===A?(v.push(parseFloat(y[0])),v.push(parseFloat(y[1])),v.push(parseFloat(y[2])),v.push(pa(y[3]))):1===A?v.push(y[0]):v.push(parseFloat(y[0]));t=t.substring(T+1).trim();y=t.indexOf("(")}else break;t=v}E[M]=t}else 64===L?"none"!==l[q]?/^[0-9 .]*$/.test(l[q])?l[q]=ea(l[q]," "):(console.warn("unsupported value: "+l[q]),l[q]=[0]):
l[q]=[0]:32===L?(F(l[q]),l[q]=parseFloat(l[q])):0===x&amp;&amp;(l[q]=parseFloat(l[q]));x=H(h,"e","easing");l=p.length;for(x||(x=[]);x.length&lt;l;)x.push([1,0,0,.58,1]);for(l=0;l&lt;x.length;++l)x[l]=oa(x[l]);n=[g,n,w,R,p,I,x,S];p=H(h,"mp","motionPath");r(p)&amp;&amp;0===g&amp;&amp;(n[8]=[],n[8][0]=h.motionRotate,g=document.createElementNS("http://www.w3.org/2000/svg","path"),p||(p="M0,0"),g.setAttribute("d",p),n[8][1]=g,n[8][2]=g.getTotalLength());h=H(h,"f","fill");r(h)&amp;&amp;(n[9]=h.slice());m.push(n)}0&lt;m.length&amp;&amp;(a.I.push(e),a.G.push(m))}a.D=
c;a.l=0;a.j=a.D;ia(a);return a},add:ia,remove:V,removeAll:function(){for(var a=D.length-1;0&lt;=a;--a)V(D[a]);return this},timelines:function(){return D.slice()},globalPlay:function(){C&amp;&amp;(ca=C-(new Date).getTime(),C=void 0,Q());return this},globalPause:function(){C||(C=z,U(!1));return this},globalState:function(){return C?"paused":"running"}}}();
	</script>
<script>
		if(KeyshapeJS.version.indexOf('1.')!=0)throw Error('Expected KeyshapeJS v1.*.*');window.ks=document.ks=KeyshapeJS;(function(ks){
var tl=ks.animate('#globey-text',[{p:'opacity',t:[17000,18000],v:[1,0],e:[[0],[0]]}],
'#globey-laundry list',[{p:'mpath',t:[0,500,1000,2000,2500,4000,4500,6000,6500,8000,8500,10000,10500,12000,12500,14000,14500,15000,16000,17000],v:['0%','0%','0%','0%','14.2%','14.2%','28.6%','28.6%','42.7%','42.7%','57.1%','57.1%','71.3%','71.3%','85.7%','85.7%','100%','100%','100%','100%'],e:[[0],[0],[0],[0],[0],[0],[0],[0],[0],[0],[0],[0],[0],[0],[0],[0],[0],[0],[0],[0]],mp:'M125.3,457.9L125.3,457.9L125.3,457.9L125.3,457.9L125.3,414.5L125.3,414.5L125.3,370.9L125.3,370.9L125.3,327.9L125.3,327.9L125.3,283.9L125.3,283.9L125.3,240.9L125.3,240.9L125.3,196.9L125.3,196.9L125.3,153.4L125.3,153.4L125.3,153.4L125.3,153.4'}],
'#globey-task card',[{p:'mpath',t:[14000,14400,15000,16000,17000],v:['0%','100%','100%','100%','100%'],e:[[1,0,0,.6,1],[0],[0],[0],[0]],mp:'M109.2,47.7L109.2,16.4L109.2,16.4L109.2,16.4L109.2,16.4'}],
'#globey-speech bubble',[{p:'opacity',t:[14000,14500,15000,16000,17000],v:[0,1,1,1,1],e:[[0],[0],[0],[0],[0]]}],
'#globey-mp-16',[{p:'d',t:[15000,16000],v:["path('M0,0L6.1,0L6.1,22.4L0,22.4Z')","path('M0,0L195.1,0L195.1,22.4L0,22.4Z')"],e:[[0],[0]]}],
'#globey-task card-2',[{p:'mpath',t:[12000,12400,13000,14000,17000],v:['0%','100%','100%','100%','100%'],e:[[1,0,0,.6,1],[0],[0],[0],[0]],mp:'M109.2,47.7L109.2,16.4L109.2,16.4L109.2,16.4L109.2,16.4'}],
'#globey-speech bubble-1',[{p:'opacity',t:[12000,12500,14000,17000],v:[0,1,1,1],e:[[0],[0],[0],[0]]}],
'#globey-mp-14',[{p:'d',t:[13000,14000,17000],v:["path('M0,0L6.1,0L6.1,22.4L0,22.4Z')","path('M0,0L195.1,0L195.1,22.4L0,22.4Z')","path('M0,0L195.1,0L195.1,22.4L0,22.4Z')"],e:[[0],[0],[0]]}],
'#globey-task card-3',[{p:'mpath',t:[10000,10400],v:['0%','100%'],e:[[1,0,0,.6,1],[0]],mp:'M109.2,47.7L109.2,16.4'}],
'#globey-speech bubble-2',[{p:'opacity',t:[10000,10500,17000],v:[0,1,1],e:[[0],[0],[0]]}],
'#globey-mp-12',[{p:'d',t:[11000,12000],v:["path('M0,0L6.1,0L6.1,22.4L0,22.4Z')","path('M0,0L195.1,0L195.1,22.4L0,22.4Z')"],e:[[0],[0]]}],
'#globey-task card-4',[{p:'mpath',t:[8000,8400],v:['0%','100%'],e:[[1,0,0,.6,1],[0]],mp:'M109.2,47.7L109.2,16.4'}],
'#globey-speech bubble-3',[{p:'opacity',t:[8000,8500],v:[0,1],e:[[0],[0]]}],
'#globey-mp-10',[{p:'d',t:[9000,10000],v:["path('M0,0L6.1,0L6.1,22.4L0,22.4Z')","path('M0,0L195.1,0L195.1,22.4L0,22.4Z')"],e:[[0],[0]]}],
'#globey-task card-5',[{p:'mpath',t:[6000,6400],v:['0%','100%'],e:[[1,0,0,.6,1],[0]],mp:'M109.2,47.7L109.2,16.4'}],
'#globey-speech bubble-4',[{p:'opacity',t:[6000,6500],v:[0,1],e:[[0],[0]]}],
'#globey-mp-8',[{p:'d',t:[7000,8000],v:["path('M0,0L6.1,0L6.1,22.4L0,22.4Z')","path('M0,0L195.1,0L195.1,22.4L0,22.4Z')"],e:[[0],[0]]}],
'#globey-task card-6',[{p:'mpath',t:[4000,4400],v:['0%','100%'],e:[[1,0,0,.6,1],[0]],mp:'M109.2,47.7L109.2,16.4'}],
'#globey-speech bubble-5',[{p:'opacity',t:[4000,4500],v:[0,1],e:[[0],[0]]}],
'#globey-mp-6',[{p:'d',t:[5000,6000],v:["path('M0,0L6.1,0L6.1,22.4L0,22.4Z')","path('M0,0L195.1,0L195.1,22.4L0,22.4Z')"],e:[[0],[0]]}],
'#globey-task card-7',[{p:'mpath',t:[2000,2400],v:['0%','100%'],e:[[1,0,0,.6,1],[0]],mp:'M109.2,47.7L109.2,16.4'}],
'#globey-speech bubble-7',[{p:'opacity',t:[2000,2500],v:[0,1],e:[[0],[0]]}],
'#globey-mp-4',[{p:'d',t:[3000,4000],v:["path('M0,0L6.1,0L6.1,22.4L0,22.4Z')","path('M0,0L195.1,0L195.1,22.4L0,22.4Z')"],e:[[0],[0]]}],
'#globey-task card-8',[{p:'mpath',t:[0,400],v:['0%','100%'],e:[[1,0,0,.6,1],[0]],mp:'M109.2,47.7L109.2,16.4'}],
'#globey-speech bubble-8',[{p:'opacity',t:[0,500],v:[0,1],e:[[0],[0]]}],
'#globey-mp-2',[{p:'d',t:[1000,2000],v:["path('M0,0L6.1,0L6.1,22.4L0,22.4Z')","path('M0,0L195.1,0L195.1,22.4L0,22.4Z')"],e:[[0],[0]]}],
'#globey-hand - left',[{p:'mpath',t:[4600,5500,5800,6200,6600,7000,7400,7800,8700,11900,12800,13100,13500,13900,14300,14700,15100,16000],v:['0%','18.4%','20.6%','22.8%','25%','27.2%','29.4%','31.6%','50%','50%','68.4%','70.6%','72.8%','75%','77.2%','79.4%','81.6%','100%'],e:[[1,0,0,.6,1],[0],[0],[0],[0],[0],[0],[1,.4,0,1,1],[0],[1,0,0,.6,1],[0],[0],[0],[0],[0],[0],[1,.4,0,1,1],[0]],mp:'M1072.2,617.9C1371.6,579,1218.3,337.3,1217.2,334.6C1216.1,332,1186.2,297.9,1186.2,297.9L1217.2,334.6C1218.3,337.3,1186.2,297.9,1186.2,297.9L1217.2,334.6C1218.3,337.3,1186.2,297.9,1186.2,297.9L1217.2,334.6C1218.3,337.3,1371.6,579,1072.2,617.9L1072.2,617.9C1371.6,579,1218.3,337.3,1217.2,334.6C1216.1,332,1186.2,297.9,1186.2,297.9L1217.2,334.6C1218.3,337.3,1186.2,297.9,1186.2,297.9L1217.2,334.6C1218.3,337.3,1186.2,297.9,1186.2,297.9L1217.2,334.6C1218.3,337.3,1371.6,579,1072.2,617.9'}],
'#globey-eyes',[{p:'mpath',t:[0,1000,2000,2200,2500,4000,4200,4500,6000,6200,6500,8000,8200,8500,10000,10200,10500,12000,12200,12500,14000,14200,14500],v:['0%','6.7%','6.7%','13.3%','20%','20%','26.7%','33.3%','33.3%','40%','46.7%','46.7%','53.3%','60%','60%','66.7%','73.3%','73.3%','80%','86.7%','86.7%','93.3%','100%'],e:[[1,0,0,.6,1],[0],[1,.4,0,1,1],[1,0,0,.6,1],[0],[1,.4,0,1,1],[1,0,0,.6,1],[0],[1,.4,0,1,1],[1,0,0,.6,1],[0],[1,.4,0,1,1],[1,0,0,.6,1],[0],[1,.4,0,1,1],[1,0,0,.6,1],[0],[1,.4,0,1,1],[1,0,0,.6,1],[0],[1,.4,0,1,1],[1,0,0,.6,1],[0]],mp:'M950.4,320.5L951.8,310.7L951.8,310.7L950.4,320.5L951.8,310.7L951.8,310.7L950.4,320.5L951.8,310.7L951.8,310.7L950.4,320.5L951.8,310.7L951.8,310.7L950.4,320.5L951.8,310.7L951.8,310.7L950.4,320.5L951.8,310.7L951.8,310.7L950.4,320.5L951.8,310.7L951.8,310.7L950.4,320.5L951.8,310.7'}],
{autoremove:false,autoplay:false}).range(0,18000).loop(true);
if(document.location.search.substr(1).split('&amp;').indexOf('global=paused')&gt;=0)ks.globalPause();})(KeyshapeJS);
(function(ks){ if(window.IntersectionObserver)new IntersectionObserver(function(es){es.forEach(function(e){if(e.isIntersecting){if(ks.timelines()[0].state()!='finished')ks.timelines()[0].play()}})},{threshold:.25}).observe(document.getElementById('globey-_a0')); })(KeyshapeJS)
	</script>
</svg>